<svg width="24" height="24" viewBox="0 0 24 24" fill="none" xmlns="http://www.w3.org/2000/svg">
<path d="M8.79234 20.6666H15.459C18.809 20.6666 19.409 19.3249 19.584 17.6916L20.209 11.0249C20.434 8.99159 19.8507 7.33325 16.2923 7.33325H7.959C4.40067 7.33325 3.81734 8.99159 4.04234 11.0249L4.66734 17.6916C4.84234 19.3249 5.44234 20.6666 8.79234 20.6666Z" stroke="currentColor" stroke-width="1.5" stroke-miterlimit="10" stroke-linecap="round" stroke-linejoin="round"/>
<path d="M8.79248 7.33333V6.66667C8.79248 5.19167 8.79248 4 11.4591 4H12.7925C15.4591 4 15.4591 5.19167 15.4591 6.66667V7.33333" stroke="currentColor" stroke-width="1.5" stroke-miterlimit="10" stroke-linecap="round" stroke-linejoin="round"/>
<path d="M13.7923 13.1666V13.9999C13.7923 14.0083 13.7923 14.0083 13.7923 14.0166C13.7923 14.9249 13.784 15.6666 12.1257 15.6666C10.4757 15.6666 10.459 14.9333 10.459 14.0249V13.1666C10.459 12.3333 10.459 12.3333 11.2923 12.3333H12.959C13.7923 12.3333 13.7923 12.3333 13.7923 13.1666Z" stroke="currentColor" stroke-width="1.5" stroke-miterlimit="10" stroke-linecap="round" stroke-linejoin="round"/>
<path d="M20.1675 11.5C18.2425 12.9 16.0425 13.7333 13.7925 14.0167" stroke="currentColor" stroke-width="1.5" stroke-miterlimit="10" stroke-linecap="round" stroke-linejoin="round"/>
<path d="M4.30908 11.7249C6.18408 13.0082 8.30075 13.7832 10.4591 14.0249" stroke="currentColor" stroke-width="1.5" stroke-miterlimit="10" stroke-linecap="round" stroke-linejoin="round"/>
</svg>
