<svg width="24" height="24" viewBox="0 0 24 24" fill="none" xmlns="http://www.w3.org/2000/svg">
<path d="M8.75 4.88889H6.875C5.83947 4.88889 5 5.73457 5 6.77778V18.1111C5 19.1543 5.83947 20 6.875 20H16.25C17.2855 20 18.125 19.1543 18.125 18.1111V17.1667M8.75 4.88889C8.75 5.93209 9.58947 6.77778 10.625 6.77778H12.5C13.5355 6.77778 14.375 5.93209 14.375 4.88889M8.75 4.88889C8.75 3.84568 9.58947 3 10.625 3H12.5C13.5355 3 14.375 3.84568 14.375 4.88889M14.375 4.88889H16.25C17.2855 4.88889 18.125 5.73457 18.125 6.77778V9.61111M20 13.3889H10.625M10.625 13.3889L13.4375 10.5556M10.625 13.3889L13.4375 16.2222" stroke="currentColor" stroke-width="1.6" stroke-linecap="round" stroke-linejoin="round"/>
</svg>
