<svg width="24" height="24" viewBox="0 0 24 24" fill="none" xmlns="http://www.w3.org/2000/svg">
<path d="M8.02734 5.5H12.8584C13.6543 5.5 14.3911 5.92027 14.7959 6.60547L14.8115 6.63281L14.8311 6.65723L17.3389 9.9043L17.4453 10.041L17.6133 10.084L19.7959 10.6289C20.7973 10.8793 21.4999 11.7792 21.5 12.8115V14.5C21.5 15.4011 20.9704 16.1796 20.2031 16.5391L19.9834 16.6416L19.9277 16.8779C19.6438 18.0942 18.5522 19 17.25 19C16.0274 19 14.99 18.2017 14.6328 17.0967L14.5205 16.75H8.97949L8.86719 17.0967C8.51 18.2017 7.47263 19 6.25 19C4.8434 19 3.68266 17.9435 3.51953 16.5811L3.49512 16.3789L3.33691 16.251C3.26061 16.1893 3.18964 16.1217 3.12207 16.0508L3.92285 14.7842C4.41078 14.0115 5.27085 13.5 6.25 13.5C7.6244 13.5 8.76428 14.5088 8.96777 15.8262L9.0332 16.25H14.4668L14.5322 15.8262C14.7357 14.5088 15.8756 13.5 17.25 13.5C18.4442 13.5 19.4622 14.2618 19.8418 15.3271L20.1895 16.3037L20.7373 15.4229C20.9039 15.1547 21 14.8378 21 14.5V12.8115C20.9999 12.0085 20.453 11.309 19.6738 11.1143L17.2773 10.5146L17.2178 10.5H4.75C3.78351 10.5 3 11.2834 3 12.25V14.5205L3.00879 15.9238C2.69087 15.5356 2.5 15.0404 2.5 14.5V12.25C2.5 11.0987 3.36511 10.1484 4.48047 10.0156L4.78125 9.98047L4.88867 9.69824L5.8418 7.20508L5.85059 7.18164L5.85645 7.1582C6.1234 6.17939 7.01281 5.50011 8.02734 5.5ZM6.25 14C5.00736 14 4 15.0074 4 16.25C4 17.4926 5.00736 18.5 6.25 18.5C7.49264 18.5 8.5 17.4926 8.5 16.25C8.5 15.0074 7.49264 14 6.25 14ZM17.25 14C16.0074 14 15 15.0074 15 16.25C15 17.4926 16.0074 18.5 17.25 18.5C18.4926 18.5 19.5 17.4926 19.5 16.25C19.5 15.0074 18.4926 14 17.25 14ZM8.02734 6C7.25099 6.00011 6.56911 6.51138 6.34961 7.25293L5.51855 9.3125L5.24121 10H10V6H8.02734ZM10.5 10H17.0059L16.3174 9.17871L14.3359 6.81348C14.0158 6.30824 13.459 6 12.8584 6H10.5V10Z" fill="currentColor" stroke="currentColor"/>
</svg>
