<svg width="20" height="20" viewBox="0 0 20 20" fill="none" xmlns="http://www.w3.org/2000/svg">
<path d="M2.9258 3.42578L5.74682 6.2468M17.0735 17.5735L14.2528 14.7527M11.4733 15.8637C10.996 15.9541 10.5036 16.0015 10 16.0015C6.48065 16.0015 3.50154 13.6884 2.5 10.4996C2.77266 9.6315 3.19187 8.82832 3.72863 8.11903M8.33233 8.8323C8.75903 8.4056 9.34852 8.14168 9.99965 8.14168C11.3019 8.14168 12.3576 9.19736 12.3576 10.4996C12.3576 11.1508 12.0937 11.7402 11.667 12.1669M8.33233 8.8323L11.667 12.1669M8.33233 8.8323L5.74682 6.2468M11.667 12.1669L5.74682 6.2468M11.667 12.1669L14.2528 14.7527M5.74682 6.2468C6.97281 5.4564 8.43284 4.99775 9.99999 4.99775C13.5193 4.99775 16.4985 7.31082 17.5 10.4997C16.9444 12.2687 15.7802 13.7681 14.2528 14.7527" stroke="currentColor" stroke-width="1.6" stroke-linecap="round" stroke-linejoin="round"/>
</svg>
