<svg width="24" height="24" viewBox="0 0 24 24" fill="none" xmlns="http://www.w3.org/2000/svg">
<path d="M5 17.2951V9.68301C5 9.11297 5.2785 8.58065 5.74217 8.26445L11.5755 4.28634C12.1353 3.90455 12.8647 3.90455 13.4245 4.28634L19.2578 8.26445C19.7215 8.58065 20 9.11297 20 9.68301V17.2951M5 17.2951C5 18.2367 5.74619 19 6.66667 19H18.3333C19.2538 19 20 18.2367 20 17.2951M5 17.2951L10.625 13.4591M20 17.2951L14.375 13.4591M5 9.62303L10.625 13.4591M20 9.62303L14.375 13.4591M14.375 13.4591L13.4245 14.1073C12.8647 14.4891 12.1353 14.4891 11.5755 14.1073L10.625 13.4591" stroke="currentColor" stroke-width="1.6" stroke-linecap="round" stroke-linejoin="round"/>
</svg>
