<svg width="16" height="16" viewBox="0 0 16 16" fill="none" xmlns="http://www.w3.org/2000/svg">
<path d="M9.25879 3.05957C10.2755 2.23077 11.7432 2.23054 12.7598 3.05957L12.9697 3.25L13.1602 3.46094C14.0486 4.55026 13.985 6.15744 12.9697 7.17285L6.50781 13.6357C6.20787 13.9356 5.80009 14.1034 5.37598 14.1035H3.7334C2.84982 14.1035 2.13391 13.3875 2.13379 12.5039V10.8281C2.13379 10.4039 2.30165 9.99632 2.60156 9.69629L9.04785 3.25L9.25879 3.05957ZM11.8389 4.38184C11.3807 3.92366 10.638 3.92386 10.1797 4.38184L3.7334 10.8281V12.5039H5.37598L11.8389 6.04102C12.2967 5.58284 12.2967 4.84004 11.8389 4.38184Z" fill="currentColor"/>
<line x1="8.84596" y1="4.78978" x2="11.4275" y2="7.37137" stroke="currentColor" stroke-width="1.6"/>
</svg>
