<svg width="24" height="24" viewBox="0 0 24 24" fill="none" xmlns="http://www.w3.org/2000/svg">
<path d="M5 12L6.55556 10.4444M6.55556 10.4444L12 5L17.4444 10.4444M6.55556 10.4444V18.2222C6.55556 18.6518 6.90378 19 7.33333 19H9.66667M17.4444 10.4444L19 12M17.4444 10.4444V18.2222C17.4444 18.6518 17.0962 19 16.6667 19H14.3333M9.66667 19C10.0962 19 10.4444 18.6518 10.4444 18.2222V15.1111C10.4444 14.6816 10.7927 14.3333 11.2222 14.3333H12.7778C13.2073 14.3333 13.5556 14.6816 13.5556 15.1111V18.2222C13.5556 18.6518 13.9038 19 14.3333 19M9.66667 19H14.3333" stroke="currentColor" stroke-width="1.6" stroke-linecap="round" stroke-linejoin="round"/>
</svg>
