<svg width="30" height="30" viewBox="0 0 30 30" fill="none" xmlns="http://www.w3.org/2000/svg">
<circle cx="15" cy="15" r="12.5" fill="currentColor"/>
<path fill-rule="evenodd" clip-rule="evenodd" d="M15.1611 22.4572C13.6891 22.4572 13.005 22.2414 11.8159 21.378C11.0637 22.3493 8.68195 23.1083 8.57808 21.8097C8.57808 20.8349 8.36318 20.0111 8.11962 19.1118C7.82951 18.0038 7.5 16.77 7.5 14.9822C7.5 10.7123 10.9885 7.5 15.1218 7.5C19.2585 7.5 22.5 10.8706 22.5 15.0218C22.5138 19.1087 19.2304 22.4354 15.1611 22.4572ZM15.222 11.1907C13.2092 11.0864 11.6404 12.4857 11.293 14.68C11.0064 16.4966 11.515 18.7089 11.9484 18.824C12.1561 18.8744 12.6791 18.4499 13.005 18.1226C13.5439 18.4965 14.1715 18.7211 14.8245 18.7737C16.9102 18.8744 18.6923 17.2797 18.8323 15.1873C18.9139 13.0904 17.308 11.3143 15.222 11.1943V11.1907Z" fill="white"/>
</svg>
