<svg width="24" height="24" viewBox="0 0 24 24" fill="none" xmlns="http://www.w3.org/2000/svg">
<path d="M12 4.2002C13.2054 4.2002 14.1544 5.13445 14.2832 6.28809C16.0769 7.17211 17.2998 9.05812 17.2998 11.2227V13.6787C17.2998 13.8948 17.3833 14.0969 17.5225 14.2412L18.5762 15.334C18.7987 15.565 18.8618 15.9069 18.7363 16.2021C18.6108 16.4973 18.3208 16.6885 18 16.6885H6C5.67919 16.6885 5.38925 16.4973 5.26367 16.2021C5.13823 15.9069 5.20134 15.565 5.42383 15.334L6.47754 14.2412C6.61666 14.0969 6.7002 13.8948 6.7002 13.6787V11.2227C6.7002 9.05844 7.92255 7.17227 9.71582 6.28809C9.84458 5.1344 10.7945 4.2002 12 4.2002Z" stroke="currentColor" stroke-width="1.6" stroke-linecap="round" stroke-linejoin="round"/>
</svg>
