<svg width="24" height="24" viewBox="0 0 24 24" fill="none" xmlns="http://www.w3.org/2000/svg">
<path d="M11.9996 3.40039C13.4812 3.40039 14.6547 4.4339 14.9957 5.7627C16.8642 6.84601 18.0992 8.90046 18.0992 11.2227V13.6787C18.0992 13.6827 18.0996 13.6863 18.1002 13.6885L19.151 14.7783C19.5965 15.2404 19.7233 15.9239 19.4723 16.5146C19.2212 17.1053 18.6414 17.4893 17.9996 17.4893H5.99963C5.35794 17.4891 4.77794 17.1053 4.52698 16.5146C4.27608 15.924 4.40292 15.2403 4.84827 14.7783L5.89905 13.6885C5.89969 13.6863 5.90002 13.6828 5.90002 13.6787V11.2227C5.90002 8.90088 7.13467 6.84617 9.00256 5.7627C9.34349 4.43386 10.5181 3.40057 11.9996 3.40039ZM11.9996 5C11.1714 5.00021 10.4996 5.69669 10.4996 6.55566V6.82129C8.75205 7.46204 7.49963 9.19091 7.49963 11.2227V13.6787C7.49963 14.0977 7.33902 14.4996 7.05334 14.7959L5.99963 15.8887H17.9996L16.9459 14.7959C16.6604 14.4996 16.4996 14.0976 16.4996 13.6787V11.2227C16.4996 9.19078 15.2474 7.46194 13.4996 6.82129V6.55566C13.4996 5.69655 12.8281 5 11.9996 5Z" fill="currentColor"/>
<path d="M14.6133 17C14.7323 17.3108 14.7998 17.6473 14.7998 18C14.7998 19.5464 13.5464 20.7998 12 20.7998C10.4536 20.7998 9.2002 19.5464 9.2002 18C9.2002 17.6473 9.26773 17.3108 9.38672 17H11.3369C11.0133 17.215 10.7998 17.5825 10.7998 18C10.7998 18.6627 11.3373 19.2002 12 19.2002C12.6627 19.2002 13.2002 18.6627 13.2002 18C13.2002 17.5825 12.9867 17.215 12.6631 17H14.6133Z" fill="currentColor"/>
</svg>
