<svg width="30" height="30" viewBox="0 0 30 30" fill="none" xmlns="http://www.w3.org/2000/svg">
<circle cx="15" cy="15" r="12.5" fill="currentColor"/>
<path d="M13.4102 9.54955C12.3441 8.48348 10.6157 8.48348 9.54963 9.54955C8.95086 10.1483 8.68856 10.9566 8.76207 11.7373C8.78173 13.8337 9.87656 16.2355 11.8206 18.1795C13.7647 20.1236 16.1666 21.2183 18.2629 21.2379C19.0434 21.3114 19.8516 21.0492 20.4504 20.4505C21.5165 19.3843 21.5165 17.6556 20.4504 16.5895C19.3843 15.5234 17.6559 15.5234 16.5898 16.5895C16.3379 16.8413 16.1453 17.1306 16.0124 17.4395C15.348 17.0269 14.6982 16.5148 14.0915 15.9082C13.485 15.3017 12.973 14.652 12.5604 13.9878C12.8692 13.8549 13.1584 13.6624 13.4102 13.4105C14.4764 12.3444 14.4764 10.6157 13.4102 9.54955Z" fill="white"/>
</svg>
