<svg width="24" height="24" viewBox="0 0 24 24" fill="none" xmlns="http://www.w3.org/2000/svg">
<path d="M4 5.77778C4 4.79594 4.79594 4 5.77778 4H8.69266C9.07526 4 9.41494 4.24483 9.53593 4.6078L10.8673 8.60197C11.0072 9.02162 10.8172 9.48028 10.4216 9.6781L8.41512 10.6813C9.39489 12.8544 11.1456 14.6051 13.3187 15.5849L14.3219 13.5784C14.5197 13.1828 14.9784 12.9928 15.398 13.1327L19.3922 14.4641C19.7552 14.5851 20 14.9247 20 15.3073V18.2222C20 19.2041 19.2041 20 18.2222 20H17.3333C9.96954 20 4 14.0305 4 6.66667V5.77778Z" stroke="currentColor" stroke-width="1.6" stroke-linecap="round" stroke-linejoin="round"/>
</svg>
