<svg width="24" height="25" viewBox="0 0 24 25" fill="none" xmlns="http://www.w3.org/2000/svg">
<path d="M21 12.5C21 17.4706 16.9706 21.5 12 21.5C7.02944 21.5 3 17.4706 3 12.5C3 7.52944 7.02944 3.5 12 3.5C16.9706 3.5 21 7.52944 21 12.5Z" stroke="currentColor" stroke-width="1.6" stroke-linecap="round" stroke-linejoin="round"/>
<path d="M11.7334 15.5C12.1814 15.5 12.4054 15.1852 12.472 14.6777C12.5254 13.9774 12.736 13.6089 13.6014 13.0252C14.4987 12.4023 15 11.5957 15 10.4207C15 8.68295 13.7734 7.5 11.9841 7.5C10.6241 7.5 9.59477 8.14525 9.18411 9.1918C9.05966 9.47763 8.997 9.7858 9.00011 10.0967C9.00011 10.6121 9.27077 10.9361 9.72676 10.9361C10.0894 10.9361 10.3334 10.7433 10.4788 10.2672C10.6894 9.49082 11.1787 9.06721 11.9107 9.06721C12.724 9.06721 13.284 9.65213 13.284 10.4889C13.284 11.2272 13.0067 11.6495 12.1881 12.2266C11.3627 12.7944 10.9534 13.4252 10.9534 14.3774V14.5229C10.9534 15.0843 11.2307 15.5 11.7334 15.5Z" fill="currentColor"/>
<circle cx="11.75" cy="17.25" r="0.75" fill="currentColor"/>
</svg>
