<svg width="24" height="24" viewBox="0 0 24 24" fill="none" xmlns="http://www.w3.org/2000/svg">
<path d="M7.73684 6.85714C7.73684 6.38376 8.16099 6 8.68421 6H10.5789C11.1022 6 11.5263 6.38376 11.5263 6.85714V8.57143C11.5263 9.04482 11.1022 9.42857 10.5789 9.42857H8.68421C8.16099 9.42857 7.73684 9.04482 7.73684 8.57143V6.85714Z" fill="currentColor"/>
<path d="M12.4737 6.85714C12.4737 6.38376 12.8978 6 13.4211 6H15.3158C15.839 6 16.2632 6.38376 16.2632 6.85714V8.57143C16.2632 9.04482 15.839 9.42857 15.3158 9.42857H13.4211C12.8978 9.42857 12.4737 9.04482 12.4737 8.57143V6.85714Z" fill="currentColor"/>
<path d="M17.2105 6.85714C17.2105 6.38376 17.6347 6 18.1579 6H20.0526C20.5758 6 21 6.38376 21 6.85714V8.57143C21 9.04482 20.5758 9.42857 20.0526 9.42857H18.1579C17.6347 9.42857 17.2105 9.04482 17.2105 8.57143V6.85714Z" fill="currentColor"/>
<path d="M3 15.4286C3 14.9552 3.42415 14.5714 3.94737 14.5714H5.84211C6.36532 14.5714 6.78947 14.9552 6.78947 15.4286V17.1429C6.78947 17.6162 6.36532 18 5.84211 18H3.94737C3.42415 18 3 17.6162 3 17.1429V15.4286Z" fill="currentColor"/>
<path d="M7.73684 15.4286C7.73684 14.9552 8.16099 14.5714 8.68421 14.5714H10.5789C11.1022 14.5714 11.5263 14.9552 11.5263 15.4286V17.1429C11.5263 17.6162 11.1022 18 10.5789 18H8.68421C8.16099 18 7.73684 17.6162 7.73684 17.1429V15.4286Z" fill="currentColor"/>
<path d="M12.4737 15.4286C12.4737 14.9552 12.8978 14.5714 13.4211 14.5714H15.3158C15.839 14.5714 16.2632 14.9552 16.2632 15.4286V17.1429C16.2632 17.6162 15.839 18 15.3158 18H13.4211C12.8978 18 12.4737 17.6162 12.4737 17.1429V15.4286Z" fill="currentColor"/>
<path d="M7.73684 11.1429C7.73684 10.6695 8.16099 10.2857 8.68421 10.2857H10.5789C11.1022 10.2857 11.5263 10.6695 11.5263 11.1429V12.8571C11.5263 13.3305 11.1022 13.7143 10.5789 13.7143H8.68421C8.16099 13.7143 7.73684 13.3305 7.73684 12.8571V11.1429Z" fill="currentColor"/>
<path d="M3 11.1429C3 10.6695 3.42415 10.2857 3.94737 10.2857H5.84211C6.36532 10.2857 6.78947 10.6695 6.78947 11.1429V12.8571C6.78947 13.3305 6.36532 13.7143 5.84211 13.7143H3.94737C3.42415 13.7143 3 13.3305 3 12.8571V11.1429Z" fill="currentColor"/>
<path d="M12.4737 11.1429C12.4737 10.6695 12.8978 10.2857 13.4211 10.2857H15.3158C15.839 10.2857 16.2632 10.6695 16.2632 11.1429V12.8571C16.2632 13.3305 15.839 13.7143 15.3158 13.7143H13.4211C12.8978 13.7143 12.4737 13.3305 12.4737 12.8571V11.1429Z" fill="currentColor"/>
<path d="M17.2105 11.1429C17.2105 10.6695 17.6347 10.2857 18.1579 10.2857H20.0526C20.5758 10.2857 21 10.6695 21 11.1429V12.8571C21 13.3305 20.5758 13.7143 20.0526 13.7143H18.1579C17.6347 13.7143 17.2105 13.3305 17.2105 12.8571V11.1429Z" fill="currentColor"/>
</svg>
