<svg width="24" height="25" viewBox="0 0 24 25" fill="none" xmlns="http://www.w3.org/2000/svg">
<path fill-rule="evenodd" clip-rule="evenodd" d="M22 12.25C22 17.7728 17.5228 22.25 12 22.25C6.47715 22.25 2 17.7728 2 12.25C2 6.72715 6.47715 2.25 12 2.25C17.5228 2.25 22 6.72715 22 12.25ZM12.3583 9.63245C11.3857 10.037 9.44176 10.8743 6.52656 12.1445C6.05318 12.3327 5.8052 12.5169 5.78262 12.6969C5.74447 13.0013 6.12558 13.1211 6.64454 13.2843C6.71513 13.3065 6.78828 13.3295 6.86326 13.3539C7.37385 13.5198 8.06067 13.714 8.41772 13.7217C8.7416 13.7287 9.10309 13.5952 9.50218 13.3211C12.2259 11.4825 13.632 10.5532 13.7202 10.5332C13.7825 10.519 13.8688 10.5012 13.9273 10.5532C13.9858 10.6052 13.98 10.7036 13.9738 10.73C13.9361 10.891 12.4401 12.2818 11.6659 13.0015C11.4246 13.2259 11.2534 13.385 11.2184 13.4214C11.14 13.5028 11.0601 13.5798 10.9833 13.6539C10.509 14.1111 10.1532 14.454 11.003 15.014C11.4113 15.2831 11.7381 15.5056 12.0641 15.7276C12.4201 15.9701 12.7752 16.2119 13.2347 16.5131C13.3517 16.5898 13.4635 16.6695 13.5724 16.7471C13.9867 17.0425 14.3589 17.3079 14.8188 17.2655C15.086 17.241 15.362 16.9897 15.5022 16.2403C15.8335 14.4693 16.4847 10.6321 16.6352 9.05082C16.6483 8.91229 16.6318 8.73499 16.6184 8.65716C16.6051 8.57932 16.5773 8.46843 16.4761 8.38634C16.3563 8.28912 16.1713 8.26862 16.0886 8.27008C15.7125 8.2767 15.1354 8.47736 12.3583 9.63245Z" fill="currentColor"/>
</svg>
