<svg width="24" height="24" viewBox="0 0 24 24" fill="none" xmlns="http://www.w3.org/2000/svg">
<path d="M12 5.20371C12.6515 4.46556 13.6047 4 14.6667 4C16.6303 4 18.2222 5.59188 18.2222 7.55556C18.2222 9.51923 16.6303 11.1111 14.6667 11.1111C13.6047 11.1111 12.6515 10.6456 12 9.9074M14.6667 20H4V19.1111C4 16.1656 6.38781 13.7778 9.33333 13.7778C12.2789 13.7778 14.6667 16.1656 14.6667 19.1111V20ZM14.6667 20H20V19.1111C20 16.1656 17.6122 13.7778 14.6667 13.7778C13.6952 13.7778 12.7845 14.0375 12 14.4913M12.8889 7.55556C12.8889 9.51923 11.297 11.1111 9.33333 11.1111C7.36965 11.1111 5.77778 9.51923 5.77778 7.55556C5.77778 5.59188 7.36965 4 9.33333 4C11.297 4 12.8889 5.59188 12.8889 7.55556Z" stroke="currentColor" stroke-width="1.6" stroke-linecap="round" stroke-linejoin="round"/>
</svg>
