<svg width="24" height="25" viewBox="0 0 24 25" fill="none" xmlns="http://www.w3.org/2000/svg">
<path d="M17.5859 12.3156C18.5169 13.0156 19.652 14.0328 20.9912 15.3672C22.3304 16.7016 23 17.5292 23 17.85C23 18.2437 22.889 18.5755 22.667 18.8453C22.445 19.1151 22.0977 19.25 21.625 19.25H19.3477C18.918 19.25 18.5312 19.0677 18.1875 18.7031C17.3281 17.7698 16.4473 16.8729 15.5449 16.0125C14.6426 15.1521 13.9193 14.5396 13.375 14.175V18.55C13.375 18.7396 13.307 18.9036 13.1709 19.0422C13.0348 19.1807 12.8737 19.25 12.6875 19.25H9.9375C9.60807 19.25 9.13184 18.9948 8.50879 18.4844C7.88574 17.974 7.21615 17.2958 6.5 16.45C5.46875 15.2396 4.29427 13.475 2.97656 11.1562C1.65885 8.8375 1 7.33542 1 6.65C1 6.13958 1.111 5.77865 1.33301 5.56719C1.55501 5.35573 1.90234 5.25 2.375 5.25H4.65234C4.85286 5.25 5.06413 5.3375 5.28613 5.5125C5.50814 5.6875 5.67643 5.89167 5.79102 6.125C5.81966 6.19792 5.96289 6.50781 6.2207 7.05469C6.47852 7.60156 6.64323 7.94792 6.71484 8.09375L7.16602 9.0125L7.69238 10.0297L8.17578 10.85L8.73438 11.7031L9.25 12.3375V5.95C9.25 5.76042 9.31803 5.59635 9.4541 5.45781C9.59017 5.31927 9.7513 5.25 9.9375 5.25H12.6875C12.8737 5.25 13.0348 5.31927 13.1709 5.45781C13.307 5.59635 13.375 5.76042 13.375 5.95V10.9375C14.8359 9.93125 16.4401 8.21771 18.1875 5.79688C18.3021 5.65104 18.4704 5.52344 18.6924 5.41406C18.9144 5.30469 19.1328 5.25 19.3477 5.25H21.625C22.1263 5.25 22.4808 5.36667 22.6885 5.6C22.8962 5.83333 23 6.18333 23 6.65C23 7.29167 22.4163 8.1849 21.249 9.32969C20.0817 10.4745 18.8607 11.4698 17.5859 12.3156Z" fill="currentColor"/>
</svg>
