<svg width="24" height="25" viewBox="0 0 24 25" fill="none" xmlns="http://www.w3.org/2000/svg">
<path d="M12.625 21C11.0104 21 9.49349 20.6094 8.07422 19.8281L2 22.25L4.42188 16.1758C3.64062 14.7565 3.25 13.2396 3.25 11.625C3.25 10.349 3.4974 9.13477 3.99219 7.98242C4.48698 6.83008 5.1543 5.83398 5.99414 4.99414C6.83398 4.1543 7.83008 3.48698 8.98242 2.99219C10.1348 2.4974 11.349 2.25 12.625 2.25C13.901 2.25 15.1152 2.4974 16.2676 2.99219C17.4199 3.48698 18.416 4.1543 19.2559 4.99414C20.0957 5.83398 20.763 6.83008 21.2578 7.98242C21.7526 9.13477 22 10.349 22 11.625C22 12.901 21.7526 14.1152 21.2578 15.2676C20.763 16.4199 20.0957 17.416 19.2559 18.2559C18.416 19.0957 17.4199 19.763 16.2676 20.2578C15.1152 20.7526 13.901 21 12.625 21ZM15.75 13.5H14.5L13.7969 14.125C13.2109 13.9688 12.4915 13.4642 11.6387 12.6113C10.7858 11.7585 10.2812 11.0391 10.125 10.4531L10.75 9.75V8.5C10.75 8.27865 10.6719 8.05729 10.5156 7.83594C10.3594 7.61458 10.1868 7.45508 9.99805 7.35742C9.80924 7.25977 9.67578 7.25 9.59766 7.32812L8.67969 8.24609C8.17188 8.75391 8.09701 9.54492 8.45508 10.6191C8.81315 11.6934 9.49674 12.735 10.5059 13.7441C11.515 14.7533 12.5566 15.4368 13.6309 15.7949C14.7051 16.153 15.4961 16.0781 16.0039 15.5703L16.9219 14.6523C17 14.5742 16.9902 14.4408 16.8926 14.252C16.7949 14.0632 16.6354 13.8906 16.4141 13.7344C16.1927 13.5781 15.9714 13.5 15.75 13.5Z" fill="currentColor"/>
</svg>
