<svg width="24" height="24" viewBox="0 0 24 24" fill="none" xmlns="http://www.w3.org/2000/svg">
<path d="M12.0377 3.29102C7.09761 3.29102 3.07723 7.16334 3.07548 11.9223C3.07432 13.4442 3.48774 14.9295 4.27161 16.2377L3 20.7104L7.75142 19.5102C9.07309 20.2015 10.5427 20.5622 12.0343 20.5611H12.0377C16.9779 20.5611 20.9983 16.6882 21 11.9293C21.0012 9.62411 20.0698 7.45424 18.3772 5.82321C16.6852 4.1916 14.4352 3.2916 12.0377 3.29102ZM12.0377 19.1031H12.0348C10.6982 19.1031 9.3871 18.7571 8.24323 18.1033L7.97032 17.9477L5.15187 18.6595L5.90439 16.0118L5.72729 15.7406C4.98343 14.6061 4.58745 13.2789 4.58806 11.9223C4.58981 7.96637 7.932 4.74902 12.0406 4.74902C14.0299 4.7496 15.9002 5.49689 17.3071 6.85269C18.714 8.2085 19.488 10.0114 19.4868 11.9287C19.4851 15.8846 16.1441 19.1031 12.0377 19.1031ZM16.1237 13.7293C15.8996 13.6219 14.7987 13.0999 14.5932 13.0273C14.3882 12.9559 14.239 12.9187 14.0897 13.1347C13.9411 13.3507 13.5114 13.8367 13.3814 13.9801C13.2501 14.1241 13.1195 14.1415 12.8954 14.0341C12.6712 13.9261 11.9495 13.6985 11.0948 12.9634C10.4288 12.392 9.97935 11.686 9.84871 11.4694C9.71806 11.254 9.83477 11.1373 9.94684 11.0299C10.0473 10.934 10.171 10.7784 10.2825 10.6524C10.3939 10.5264 10.4311 10.4364 10.5066 10.2924C10.5809 10.149 10.5437 10.0224 10.4874 9.91502C10.4311 9.80644 9.984 8.74502 9.79645 8.3136C9.61529 7.89321 9.43064 7.94953 9.29303 7.94256C9.16239 7.93676 9.01374 7.93502 8.86335 7.93502C8.71529 7.93502 8.472 7.98902 8.26645 8.20502C8.06148 8.42102 7.48258 8.94244 7.48258 10.0039C7.48258 11.0659 8.28503 12.0913 8.3971 12.2353C8.50916 12.3787 9.97645 14.5579 12.223 15.4927C12.7572 15.7139 13.1741 15.8469 13.4998 15.9468C14.0363 16.1111 14.5246 16.0873 14.9102 16.0321C15.3399 15.97 16.2352 15.5107 16.421 15.0073C16.608 14.5039 16.608 14.0719 16.5523 13.9819C16.4977 13.8919 16.3479 13.8379 16.1237 13.7293Z" fill="currentColor"/>
</svg>
