<svg width="24" height="25" viewBox="0 0 24 25" fill="none" xmlns="http://www.w3.org/2000/svg">
<path fill-rule="evenodd" clip-rule="evenodd" d="M19.792 5.66483C20.6521 5.89589 21.3325 6.57626 21.5635 7.43633C21.9872 9.00244 22 12.2502 22 12.2502C22 12.2502 22 15.5108 21.5764 17.0641C21.3453 17.9241 20.665 18.6045 19.8049 18.8356C18.2516 19.2592 12 19.2592 12 19.2592C12 19.2592 5.74839 19.2592 4.19512 18.8356C3.33504 18.6045 2.65469 17.9241 2.42362 17.0641C2 15.498 2 12.2502 2 12.2502C2 12.2502 2 9.00244 2.41078 7.44917C2.64185 6.58909 3.32221 5.90873 4.18229 5.67767C5.73556 5.25404 11.9872 5.24121 11.9872 5.24121C11.9872 5.24121 18.2388 5.24121 19.792 5.66483ZM15.1836 12.2502L9.99743 15.254V9.24635L15.1836 12.2502Z" fill="currentColor"/>
</svg>
