<svg width="216" height="44" viewBox="0 0 216 44" fill="none" xmlns="http://www.w3.org/2000/svg">
<path d="M201.75 7.25H215.868V26.198H212.557V10.4333H205.061V18.164C205.061 21.1957 204.452 23.3558 203.234 24.6442C202.016 25.9074 200.228 26.4254 197.868 26.198V23.0905C199.187 23.2674 200.164 22.9768 200.798 22.2189C201.433 21.4357 201.75 20.0588 201.75 18.0882V7.25Z" fill="#1B16BC"/>
<path d="M192.743 10.826V7.71958H195.868V25.7804H192.743V22.674C191.211 25.058 188.948 26.25 185.955 26.25C183.417 26.25 181.274 25.3349 179.526 23.5047C177.754 21.6505 176.868 19.3989 176.868 16.75C176.868 14.1252 177.754 11.8856 179.526 10.0314C181.298 8.17712 183.441 7.25 185.955 7.25C188.948 7.25 191.211 8.44201 192.743 10.826ZM186.35 23.2158C188.17 23.2158 189.69 22.6017 190.912 21.3736C192.133 20.0973 192.743 18.5561 192.743 16.75C192.743 14.9198 192.133 13.3907 190.912 12.1625C189.69 10.9103 188.17 10.2842 186.35 10.2842C184.554 10.2842 183.046 10.9103 181.825 12.1625C180.604 13.3907 179.993 14.9198 179.993 16.75C179.993 18.5561 180.604 20.0973 181.825 21.3736C183.046 22.6017 184.554 23.2158 186.35 23.2158Z" fill="#1B16BC"/>
<path d="M160.868 7.25H175.868V10.442H169.91V26.25H166.861V10.442H160.868V7.25Z" fill="#1B16BC"/>
<path d="M145.847 20.588L155.443 7.25H157.868V26.25H154.889V12.912L145.293 26.25H142.868V7.25H145.847V20.588Z" fill="#1B16BC"/>
<path d="M122.868 7.25H137.868V26.25H134.854V10.404H125.882V26.25H122.868V7.25Z" fill="#1B16BC"/>
<path d="M114.908 10.826V7.71958H117.868V25.7804H114.908V22.674C113.456 25.058 111.312 26.25 108.477 26.25C106.072 26.25 104.042 25.3349 102.386 23.5047C100.707 21.6505 99.8682 19.3989 99.8682 16.75C99.8682 14.1252 100.707 11.8856 102.386 10.0314C104.065 8.17712 106.095 7.25 108.477 7.25C111.312 7.25 113.456 8.44201 114.908 10.826ZM108.851 23.2158C110.575 23.2158 112.016 22.6017 113.173 21.3736C114.329 20.0973 114.908 18.5561 114.908 16.75C114.908 14.9198 114.329 13.3907 113.173 12.1625C112.016 10.9103 110.575 10.2842 108.851 10.2842C107.15 10.2842 105.721 10.9103 104.564 12.1625C103.407 13.3907 102.828 14.9198 102.828 16.75C102.828 18.5561 103.407 20.0973 104.564 21.3736C105.721 22.6017 107.15 23.2158 108.851 23.2158Z" fill="#1B16BC"/>
<path d="M88.5872 12.8786L99.8682 26.25H95.8367L85.157 13.77V26.25H81.8682V0.25H85.157V11.9871L95.4831 0.25H99.5145L88.5872 12.8786Z" fill="#1B16BC"/>
<path d="M73.3335 12.7671C74.4332 13.3614 75.2972 14.191 75.9256 15.2557C76.554 16.3205 76.8682 17.5338 76.8682 18.8957C76.8682 20.9757 76.2061 22.7214 74.882 24.1329C73.5579 25.5443 71.9421 26.25 70.0345 26.25H59.8682V0.25H69.2939C71.1566 0.25 72.7163 0.930952 73.9731 2.29286C75.2523 3.65476 75.8919 5.33857 75.8919 7.34429C75.8919 9.67191 75.0391 11.4795 73.3335 12.7671ZM69.2939 3.48143H62.9989V11.43H69.2939C70.2814 11.43 71.1117 11.0462 71.785 10.2786C72.4583 9.51095 72.7949 8.57 72.7949 7.45572C72.7949 6.36619 72.447 5.43762 71.7513 4.67C71.0781 3.87762 70.2589 3.48143 69.2939 3.48143ZM62.9989 23.0186H70.0345C71.0893 23.0186 71.9758 22.61 72.6939 21.7929C73.4121 20.9757 73.7711 19.9729 73.7711 18.7843C73.7711 17.6205 73.4008 16.63 72.6602 15.8129C71.9645 14.9957 71.0893 14.5871 70.0345 14.5871H62.9989V23.0186Z" fill="#1B16BC"/>
<path d="M211 33H216V34.344H212.326V41H211V33Z" fill="#1B16BC"/>
<path d="M208.831 39.8441C208.062 40.6147 207.116 41 205.992 41C204.869 41 203.923 40.6147 203.154 39.8441C202.385 39.0735 202 38.1255 202 37C202 35.8745 202.385 34.9265 203.154 34.1559C203.923 33.3853 204.869 33 205.992 33C207.116 33 208.062 33.3853 208.831 34.1559C209.61 34.9366 210 35.8847 210 37C210 38.1153 209.61 39.0634 208.831 39.8441ZM205.992 39.7072C206.751 39.7072 207.389 39.4487 207.905 38.9316C208.421 38.4144 208.679 37.7706 208.679 37C208.679 36.2294 208.421 35.5856 207.905 35.0684C207.389 34.5513 206.751 34.2928 205.992 34.2928C205.244 34.2928 204.611 34.5513 204.095 35.0684C203.579 35.5856 203.321 36.2294 203.321 37C203.321 37.7706 203.579 38.4144 204.095 38.9316C204.611 39.4487 205.244 39.7072 205.992 39.7072Z" fill="#1B16BC"/>
<path d="M195.725 33H202V40.9781H200.529V34.3403H197.197V37.5954C197.197 38.8719 196.926 39.7814 196.385 40.3239C195.844 40.8558 195.049 41.0738 194 40.9781V39.6697C194.586 39.7441 195.02 39.6218 195.302 39.3027C195.584 38.9729 195.725 38.3932 195.725 37.5635V33Z" fill="#1B16BC"/>
<path d="M192.684 34.5057V33.1977H194V40.8023H192.684V39.4943C192.039 40.4981 191.086 41 189.826 41C188.757 41 187.855 40.6147 187.119 39.8441C186.373 39.0634 186 38.1153 186 37C186 35.8948 186.373 34.9518 187.119 34.1711C187.865 33.3904 188.767 33 189.826 33C191.086 33 192.039 33.5019 192.684 34.5057ZM189.992 39.7224C190.759 39.7224 191.399 39.4639 191.913 38.9468C192.427 38.4094 192.684 37.7605 192.684 37C192.684 36.2294 192.427 35.5856 191.913 35.0684C191.399 34.5412 190.759 34.2776 189.992 34.2776C189.236 34.2776 188.601 34.5412 188.087 35.0684C187.573 35.5856 187.316 36.2294 187.316 37C187.316 37.7605 187.573 38.4094 188.087 38.9468C188.601 39.4639 189.236 39.7224 189.992 39.7224Z" fill="#1B16BC"/>
<path d="M184.522 36.9087C185.507 37.2636 186 37.8669 186 38.7186C186 39.3777 185.697 39.9252 185.092 40.3612C184.486 40.7871 183.649 41 182.58 41C180.799 41 179.606 40.3916 179 39.1749L180.3 38.5209C180.633 39.3523 181.399 39.7681 182.598 39.7681C183.18 39.7681 183.637 39.6616 183.969 39.4487C184.302 39.2357 184.468 38.9518 184.468 38.597C184.468 38.2928 184.332 38.0444 184.059 37.8517C183.797 37.6591 183.441 37.5627 182.99 37.5627H181.69V36.3612H182.651C183.103 36.3612 183.453 36.27 183.702 36.0875C183.952 35.8948 184.076 35.6362 184.076 35.3118C184.076 34.9772 183.928 34.7136 183.631 34.5209C183.334 34.3181 182.936 34.2167 182.438 34.2167C181.44 34.2167 180.763 34.5767 180.407 35.2966L179.142 34.673C179.772 33.5577 180.87 33 182.438 33C183.388 33 184.148 33.2129 184.718 33.6388C185.299 34.0545 185.59 34.5767 185.59 35.2053C185.59 35.9759 185.234 36.5437 184.522 36.9087Z" fill="#1B16BC"/>
<path d="M174.991 33V39.5773H176V43H174.742V40.8864H169.258V43H168V39.5773H168.892C169.36 38.8833 169.594 37.9106 169.594 36.6593V33H174.991ZM170.34 39.5773H173.733V34.2776H170.852V36.6593C170.852 37.816 170.681 38.7886 170.34 39.5773Z" fill="#1B16BC"/>
<path d="M166.831 39.8441C166.062 40.6147 165.116 41 163.992 41C162.869 41 161.923 40.6147 161.154 39.8441C160.385 39.0735 160 38.1255 160 37C160 35.8745 160.385 34.9265 161.154 34.1559C161.923 33.3853 162.869 33 163.992 33C165.116 33 166.062 33.3853 166.831 34.1559C167.61 34.9366 168 35.8847 168 37C168 38.1153 167.61 39.0634 166.831 39.8441ZM163.992 39.7072C164.751 39.7072 165.389 39.4487 165.905 38.9316C166.421 38.4144 166.679 37.7706 166.679 37C166.679 36.2294 166.421 35.5856 165.905 35.0684C165.389 34.5513 164.751 34.2928 163.992 34.2928C163.244 34.2928 162.611 34.5513 162.095 35.0684C161.579 35.5856 161.321 36.2294 161.321 37C161.321 37.7706 161.579 38.4144 162.095 38.9316C162.611 39.4487 163.244 39.7072 163.992 39.7072Z" fill="#1B16BC"/>
<path d="M153 33H159V41H157.794V34.328H154.206V41H153V33Z" fill="#1B16BC"/>
<path d="M147.873 36.888C148.624 37.2293 149 37.848 149 38.744C149 39.4267 148.795 39.976 148.385 40.392C147.976 40.7973 147.4 41 146.659 41H143V33H146.366C147.088 33 147.649 33.1973 148.049 33.592C148.459 33.9867 148.663 34.5147 148.663 35.176C148.663 35.944 148.4 36.5147 147.873 36.888ZM146.307 34.248H144.244V36.344H146.307C147.049 36.344 147.42 35.9867 147.42 35.272C147.42 34.5893 147.049 34.248 146.307 34.248ZM144.244 39.736H146.585C146.956 39.736 147.239 39.64 147.434 39.448C147.639 39.256 147.741 38.984 147.741 38.632C147.741 38.3013 147.639 38.0453 147.434 37.864C147.239 37.672 146.956 37.576 146.585 37.576H144.244V39.736Z" fill="#1B16BC"/>
<path d="M140.831 39.8441C140.062 40.6147 139.116 41 137.992 41C136.869 41 135.923 40.6147 135.154 39.8441C134.385 39.0735 134 38.1255 134 37C134 35.8745 134.385 34.9265 135.154 34.1559C135.923 33.3853 136.869 33 137.992 33C139.116 33 140.062 33.3853 140.831 34.1559C141.61 34.9366 142 35.8847 142 37C142 38.1153 141.61 39.0634 140.831 39.8441ZM137.992 39.7072C138.751 39.7072 139.389 39.4487 139.905 38.9316C140.421 38.4144 140.679 37.7706 140.679 37C140.679 36.2294 140.421 35.5856 139.905 35.0684C139.389 34.5513 138.751 34.2928 137.992 34.2928C137.244 34.2928 136.611 34.5513 136.095 35.0684C135.579 35.5856 135.321 36.2294 135.321 37C135.321 37.7706 135.579 38.4144 136.095 38.9316C136.611 39.4487 137.244 39.7072 137.992 39.7072Z" fill="#1B16BC"/>
<path d="M131.512 33H133V41H131.64V35.192L129.096 39.288H128.92L126.376 35.192V41H125V33H126.488L129 37.048L131.512 33Z" fill="#1B16BC"/>
<path d="M122.691 32.1674H118.326V31H122.691V32.1674ZM118.39 38.7112L122.868 33.3195H124V41H122.61V35.6083L118.132 41H117V33.3195H118.39V38.7112Z" fill="#1B16BC"/>
<path d="M114.684 34.5057V33.1977H116V40.8023H114.684V39.4943C114.039 40.4981 113.086 41 111.826 41C110.757 41 109.855 40.6147 109.119 39.8441C108.373 39.0634 108 38.1153 108 37C108 35.8948 108.373 34.9518 109.119 34.1711C109.865 33.3904 110.767 33 111.826 33C113.086 33 114.039 33.5019 114.684 34.5057ZM111.992 39.7224C112.759 39.7224 113.399 39.4639 113.913 38.9468C114.427 38.4094 114.684 37.7605 114.684 37C114.684 36.2294 114.427 35.5856 113.913 35.0684C113.399 34.5412 112.759 34.2776 111.992 34.2776C111.236 34.2776 110.601 34.5412 110.087 35.0684C109.573 35.5856 109.316 36.2294 109.316 37C109.316 37.7605 109.573 38.4094 110.087 38.9468C110.601 39.4639 111.236 39.7224 111.992 39.7224Z" fill="#1B16BC"/>
<path d="M106.733 36.9087C107.578 37.2636 108 37.8669 108 38.7186C108 39.3777 107.74 39.9252 107.221 40.3612C106.702 40.7871 105.985 41 105.069 41C103.542 41 102.519 40.3916 102 39.1749L103.115 38.5209C103.399 39.3523 104.056 39.7681 105.084 39.7681C105.583 39.7681 105.975 39.6616 106.26 39.4487C106.545 39.2357 106.687 38.9518 106.687 38.597C106.687 38.2928 106.57 38.0444 106.336 37.8517C106.112 37.6591 105.807 37.5627 105.42 37.5627H104.305V36.3612H105.13C105.517 36.3612 105.817 36.27 106.031 36.0875C106.244 35.8948 106.351 35.6362 106.351 35.3118C106.351 34.9772 106.224 34.7136 105.969 34.5209C105.715 34.3181 105.374 34.2167 104.947 34.2167C104.092 34.2167 103.511 34.5767 103.206 35.2966L102.122 34.673C102.662 33.5577 103.603 33 104.947 33C105.761 33 106.412 33.2129 106.901 33.6388C107.399 34.0545 107.649 34.5767 107.649 35.2053C107.649 35.9759 107.344 36.5437 106.733 36.9087Z" fill="#1B16BC"/>
<path d="M94.1739 33C95.2325 33 96.1348 33.396 96.8809 34.1879C97.627 34.9799 98 35.9364 98 37.0575C98 38.1889 97.627 39.1505 96.8809 39.9425C96.1449 40.7242 95.2426 41.115 94.1739 41.115C92.9238 41.115 91.971 40.6059 91.3157 39.5877V44H90V33.2006H91.3157V34.5273C91.971 33.5091 92.9238 33 94.1739 33ZM94.0076 39.8191C94.7637 39.8191 95.3989 39.5568 95.913 39.0323C96.4272 38.4871 96.6843 37.8289 96.6843 37.0575C96.6843 36.2758 96.4272 35.6227 95.913 35.0982C95.3989 34.5633 94.7637 34.2959 94.0076 34.2959C93.2413 34.2959 92.6011 34.5633 92.087 35.0982C91.5728 35.6227 91.3157 36.2758 91.3157 37.0575C91.3157 37.8289 91.5728 38.4871 92.087 39.0323C92.6011 39.5568 93.2413 39.8191 94.0076 39.8191Z" fill="#1B16BC"/>
<path d="M83 33H90V34.344H87.2196V41H85.7967V34.344H83V33Z" fill="#1B16BC"/>
<path d="M81.5935 36.328V33H83V41H81.5935V37.656H77.4065V41H76V33H77.4065V36.328H81.5935Z" fill="#1B16BC"/>
<path d="M74.9589 37.6084H69.2192C69.3379 38.2776 69.6164 38.8048 70.0548 39.1901C70.4932 39.5653 71.0411 39.7529 71.6986 39.7529C72.6027 39.7529 73.2603 39.3828 73.6712 38.6426L74.6849 39.2814C74.0091 40.4271 73.0046 41 71.6712 41C70.5936 41 69.7078 40.6248 69.0137 39.8745C68.3379 39.1039 68 38.1458 68 37C68 35.8441 68.3333 34.891 69 34.1407C69.6667 33.3802 70.5297 33 71.589 33C72.5936 33 73.411 33.3954 74.0411 34.1863C74.6804 34.9569 75 35.8999 75 37.0152C75 37.2079 74.9863 37.4056 74.9589 37.6084ZM71.589 34.2471C70.9589 34.2471 70.4292 34.4449 70 34.8403C69.5799 35.2357 69.3196 35.7731 69.2192 36.4525H73.7945C73.6941 35.7529 73.4429 35.2104 73.0411 34.8251C72.6393 34.4398 72.1553 34.2471 71.589 34.2471Z" fill="#1B16BC"/>
<path d="M66.6932 33V39.5773H68V43H66.6295V40.8864H60V33H61.3865V39.5773H65.3068V33H66.6932Z" fill="#1B16BC"/>
<path d="M32.1455 20.3428L13.3096 41H0V0H13.5938L32.1455 20.3428ZM50.9863 41H22.9736L41.8086 20.3447L23.2568 0H50.9863V41Z" fill="#1B16BC"/>
</svg>
