<svg width="214" height="42" viewBox="0 0 214 42" fill="none" xmlns="http://www.w3.org/2000/svg">
<path d="M201.015 7.25H214V24.75H210.955V10.19H204.06V17.33C204.06 20.13 203.5 22.125 202.38 23.315C201.26 24.4817 199.615 24.96 197.445 24.75V21.88C198.658 22.0433 199.556 21.775 200.14 21.075C200.723 20.3517 201.015 19.08 201.015 17.26V7.25Z" fill="white"/>
<path d="M191.746 10.2599V7.24992H194.791V24.7499H191.746V21.7399C190.253 24.0499 188.048 25.2049 185.131 25.2049C182.658 25.2049 180.57 24.3183 178.866 22.5449C177.14 20.7483 176.276 18.5666 176.276 15.9999C176.276 13.4566 177.14 11.2866 178.866 9.48992C180.593 7.69326 182.681 6.79492 185.131 6.79492C188.048 6.79492 190.253 7.94992 191.746 10.2599ZM185.516 22.2649C187.29 22.2649 188.771 21.6699 189.961 20.4799C191.151 19.2433 191.746 17.7499 191.746 15.9999C191.746 14.2266 191.151 12.7449 189.961 11.5549C188.771 10.3416 187.29 9.73492 185.516 9.73492C183.766 9.73492 182.296 10.3416 181.106 11.5549C179.916 12.7449 179.321 14.2266 179.321 15.9999C179.321 17.7499 179.916 19.2433 181.106 20.4799C182.296 21.6699 183.766 22.2649 185.516 22.2649Z" fill="white"/>
<path d="M160.292 7.25H175.272V10.19H169.322V24.75H166.277V10.19H160.292V7.25Z" fill="white"/>
<path d="M145.471 19.535L155.166 7.25H157.616V24.75H154.606V12.465L144.911 24.75H142.461V7.25H145.471V19.535Z" fill="white"/>
<path d="M122.671 7.25H137.826V24.75H134.781V10.155H125.716V24.75H122.671V7.25Z" fill="white"/>
<path d="M115.013 10.2599V7.24992H118.058V24.7499H115.013V21.7399C113.52 24.0499 111.315 25.2049 108.398 25.2049C105.925 25.2049 103.836 24.3183 102.133 22.5449C100.406 20.7483 99.543 18.5666 99.543 15.9999C99.543 13.4566 100.406 11.2866 102.133 9.48992C103.86 7.69326 105.948 6.79492 108.398 6.79492C111.315 6.79492 113.52 7.94992 115.013 10.2599ZM108.783 22.2649C110.556 22.2649 112.038 21.6699 113.228 20.4799C114.418 19.2433 115.013 17.7499 115.013 15.9999C115.013 14.2266 114.418 12.7449 113.228 11.5549C112.038 10.3416 110.556 9.73492 108.783 9.73492C107.033 9.73492 105.563 10.3416 104.373 11.5549C103.183 12.7449 102.588 14.2266 102.588 15.9999C102.588 17.7499 103.183 19.2433 104.373 20.4799C105.563 21.6699 107.033 22.2649 108.783 22.2649Z" fill="white"/>
<path d="M88.3473 12.15L99.5123 24.75H95.5223L84.9523 12.99V24.75H81.6973V0.25H84.9523V11.31L95.1723 0.25H99.1623L88.3473 12.15Z" fill="white"/>
<path d="M74.1641 12.045C75.3074 12.605 76.2057 13.3867 76.8591 14.39C77.5124 15.3933 77.8391 16.5367 77.8391 17.82C77.8391 19.78 77.1507 21.425 75.7741 22.755C74.3974 24.085 72.7174 24.75 70.7341 24.75H60.1641V0.25H69.9641C71.9007 0.25 73.5224 0.891667 74.8291 2.175C76.1591 3.45833 76.8241 5.045 76.8241 6.935C76.8241 9.12833 75.9374 10.8317 74.1641 12.045ZM69.9641 3.295H63.4191V10.785H69.9641C70.9907 10.785 71.8541 10.4233 72.5541 9.7C73.2541 8.97667 73.6041 8.09 73.6041 7.04C73.6041 6.01334 73.2424 5.13833 72.5191 4.415C71.8191 3.66833 70.9674 3.295 69.9641 3.295ZM63.4191 21.705H70.7341C71.8307 21.705 72.7524 21.32 73.4991 20.55C74.2457 19.78 74.6191 18.835 74.6191 17.715C74.6191 16.6183 74.2341 15.685 73.4641 14.915C72.7407 14.145 71.8307 13.76 70.7341 13.76H63.4191V21.705Z" fill="white"/>
<path d="M207.667 31.25H212.587V32.51H208.972V38.75H207.667V31.25Z" fill="white"/>
<path d="M205.724 37.8052C204.964 38.5652 204.029 38.9452 202.919 38.9452C201.809 38.9452 200.874 38.5652 200.114 37.8052C199.354 37.0452 198.974 36.1102 198.974 35.0002C198.974 33.8902 199.354 32.9552 200.114 32.1952C200.874 31.4352 201.809 31.0552 202.919 31.0552C204.029 31.0552 204.964 31.4352 205.724 32.1952C206.494 32.9652 206.879 33.9002 206.879 35.0002C206.879 36.1002 206.494 37.0352 205.724 37.8052ZM202.919 37.6702C203.669 37.6702 204.299 37.4152 204.809 36.9052C205.319 36.3952 205.574 35.7602 205.574 35.0002C205.574 34.2402 205.319 33.6052 204.809 33.0952C204.299 32.5852 203.669 32.3302 202.919 32.3302C202.179 32.3302 201.554 32.5852 201.044 33.0952C200.534 33.6052 200.279 34.2402 200.279 35.0002C200.279 35.7602 200.534 36.3952 201.044 36.9052C201.554 37.4152 202.179 37.6702 202.919 37.6702Z" fill="white"/>
<path d="M192.601 31.25H198.166V38.75H196.861V32.51H193.906V35.57C193.906 36.77 193.666 37.625 193.186 38.135C192.706 38.635 192.001 38.84 191.071 38.75V37.52C191.591 37.59 191.976 37.475 192.226 37.175C192.476 36.865 192.601 36.32 192.601 35.54V31.25Z" fill="white"/>
<path d="M189.379 32.5402V31.2502H190.684V38.7502H189.379V37.4602C188.739 38.4502 187.794 38.9452 186.544 38.9452C185.484 38.9452 184.589 38.5652 183.859 37.8052C183.119 37.0352 182.749 36.1002 182.749 35.0002C182.749 33.9102 183.119 32.9802 183.859 32.2102C184.599 31.4402 185.494 31.0552 186.544 31.0552C187.794 31.0552 188.739 31.5502 189.379 32.5402ZM186.709 37.6852C187.469 37.6852 188.104 37.4302 188.614 36.9202C189.124 36.3902 189.379 35.7502 189.379 35.0002C189.379 34.2402 189.124 33.6052 188.614 33.0952C188.104 32.5752 187.469 32.3152 186.709 32.3152C185.959 32.3152 185.329 32.5752 184.819 33.0952C184.309 33.6052 184.054 34.2402 184.054 35.0002C184.054 35.7502 184.309 36.3902 184.819 36.9202C185.329 37.4302 185.959 37.6852 186.709 37.6852Z" fill="white"/>
<path d="M181.26 34.9102C182.09 35.2602 182.505 35.8552 182.505 36.6952C182.505 37.3452 182.25 37.8852 181.74 38.3152C181.23 38.7352 180.525 38.9452 179.625 38.9452C178.125 38.9452 177.12 38.3452 176.61 37.1452L177.705 36.5002C177.985 37.3202 178.63 37.7302 179.64 37.7302C180.13 37.7302 180.515 37.6252 180.795 37.4152C181.075 37.2052 181.215 36.9252 181.215 36.5752C181.215 36.2752 181.1 36.0302 180.87 35.8402C180.65 35.6502 180.35 35.5552 179.97 35.5552H178.875V34.3702H179.685C180.065 34.3702 180.36 34.2802 180.57 34.1002C180.78 33.9102 180.885 33.6552 180.885 33.3352C180.885 33.0052 180.76 32.7452 180.51 32.5552C180.26 32.3552 179.925 32.2552 179.505 32.2552C178.665 32.2552 178.095 32.6102 177.795 33.3202L176.73 32.7052C177.26 31.6052 178.185 31.0552 179.505 31.0552C180.305 31.0552 180.945 31.2652 181.425 31.6852C181.915 32.0952 182.16 32.6102 182.16 33.2302C182.16 33.9902 181.86 34.5502 181.26 34.9102Z" fill="white"/>
<path d="M172.519 31.25V37.505H173.554V40.76H172.264V38.75H166.639V40.76H165.349V37.505H166.264C166.744 36.845 166.984 35.92 166.984 34.73V31.25H172.519ZM167.749 37.505H171.229V32.465H168.274V34.73C168.274 35.83 168.099 36.755 167.749 37.505Z" fill="white"/>
<path d="M164.418 37.8052C163.658 38.5652 162.723 38.9452 161.613 38.9452C160.503 38.9452 159.568 38.5652 158.808 37.8052C158.048 37.0452 157.668 36.1102 157.668 35.0002C157.668 33.8902 158.048 32.9552 158.808 32.1952C159.568 31.4352 160.503 31.0552 161.613 31.0552C162.723 31.0552 163.658 31.4352 164.418 32.1952C165.188 32.9652 165.573 33.9002 165.573 35.0002C165.573 36.1002 165.188 37.0352 164.418 37.8052ZM161.613 37.6702C162.363 37.6702 162.993 37.4152 163.503 36.9052C164.013 36.3952 164.268 35.7602 164.268 35.0002C164.268 34.2402 164.013 33.6052 163.503 33.0952C162.993 32.5852 162.363 32.3302 161.613 32.3302C160.873 32.3302 160.248 32.5852 159.738 33.0952C159.228 33.6052 158.973 34.2402 158.973 35.0002C158.973 35.7602 159.228 36.3952 159.738 36.9052C160.248 37.4152 160.873 37.6702 161.613 37.6702Z" fill="white"/>
<path d="M150.356 31.25H156.851V38.75H155.546V32.495H151.661V38.75H150.356V31.25Z" fill="white"/>
<path d="M145.543 34.895C146.313 35.215 146.698 35.795 146.698 36.635C146.698 37.275 146.488 37.79 146.068 38.18C145.648 38.56 145.058 38.75 144.298 38.75H140.548V31.25H143.998C144.738 31.25 145.313 31.435 145.723 31.805C146.143 32.175 146.353 32.67 146.353 33.29C146.353 34.01 146.083 34.545 145.543 34.895ZM143.938 32.42H141.823V34.385H143.938C144.698 34.385 145.078 34.05 145.078 33.38C145.078 32.74 144.698 32.42 143.938 32.42ZM141.823 37.565H144.223C144.603 37.565 144.893 37.475 145.093 37.295C145.303 37.115 145.408 36.86 145.408 36.53C145.408 36.22 145.303 35.98 145.093 35.81C144.893 35.63 144.603 35.54 144.223 35.54H141.823V37.565Z" fill="white"/>
<path d="M138.604 37.8052C137.844 38.5652 136.909 38.9452 135.799 38.9452C134.689 38.9452 133.754 38.5652 132.994 37.8052C132.234 37.0452 131.854 36.1102 131.854 35.0002C131.854 33.8902 132.234 32.9552 132.994 32.1952C133.754 31.4352 134.689 31.0552 135.799 31.0552C136.909 31.0552 137.844 31.4352 138.604 32.1952C139.374 32.9652 139.759 33.9002 139.759 35.0002C139.759 36.1002 139.374 37.0352 138.604 37.8052ZM135.799 37.6702C136.549 37.6702 137.179 37.4152 137.689 36.9052C138.199 36.3952 138.454 35.7602 138.454 35.0002C138.454 34.2402 138.199 33.6052 137.689 33.0952C137.179 32.5852 136.549 32.3302 135.799 32.3302C135.059 32.3302 134.434 32.5852 133.924 33.0952C133.414 33.6052 133.159 34.2402 133.159 35.0002C133.159 35.7602 133.414 36.3952 133.924 36.9052C134.434 37.4152 135.059 37.6702 135.799 37.6702Z" fill="white"/>
<path d="M129.637 31.25H131.032V38.75H129.757V33.305L127.372 37.145H127.207L124.822 33.305V38.75H123.532V31.25H124.927L127.282 35.045L129.637 31.25Z" fill="white"/>
<path d="M121.081 30.1249H117.031V28.9849H121.081V30.1249ZM117.091 36.5149L121.246 31.2499H122.296V38.7499H121.006V33.4849L116.851 38.7499H115.801V31.2499H117.091V36.5149Z" fill="white"/>
<path d="M113.269 32.5402V31.2502H114.574V38.7502H113.269V37.4602C112.629 38.4502 111.684 38.9452 110.434 38.9452C109.374 38.9452 108.479 38.5652 107.749 37.8052C107.009 37.0352 106.639 36.1002 106.639 35.0002C106.639 33.9102 107.009 32.9802 107.749 32.2102C108.489 31.4402 109.384 31.0552 110.434 31.0552C111.684 31.0552 112.629 31.5502 113.269 32.5402ZM110.599 37.6852C111.359 37.6852 111.994 37.4302 112.504 36.9202C113.014 36.3902 113.269 35.7502 113.269 35.0002C113.269 34.2402 113.014 33.6052 112.504 33.0952C111.994 32.5752 111.359 32.3152 110.599 32.3152C109.849 32.3152 109.219 32.5752 108.709 33.0952C108.199 33.6052 107.944 34.2402 107.944 35.0002C107.944 35.7502 108.199 36.3902 108.709 36.9202C109.219 37.4302 109.849 37.6852 110.599 37.6852Z" fill="white"/>
<path d="M105.15 34.9102C105.98 35.2602 106.395 35.8552 106.395 36.6952C106.395 37.3452 106.14 37.8852 105.63 38.3152C105.12 38.7352 104.415 38.9452 103.515 38.9452C102.015 38.9452 101.01 38.3452 100.5 37.1452L101.595 36.5002C101.875 37.3202 102.52 37.7302 103.53 37.7302C104.02 37.7302 104.405 37.6252 104.685 37.4152C104.965 37.2052 105.105 36.9252 105.105 36.5752C105.105 36.2752 104.99 36.0302 104.76 35.8402C104.54 35.6502 104.24 35.5552 103.86 35.5552H102.765V34.3702H103.575C103.955 34.3702 104.25 34.2802 104.46 34.1002C104.67 33.9102 104.775 33.6552 104.775 33.3352C104.775 33.0052 104.65 32.7452 104.4 32.5552C104.15 32.3552 103.815 32.2552 103.395 32.2552C102.555 32.2552 101.985 32.6102 101.685 33.3202L100.62 32.7052C101.15 31.6052 102.075 31.0552 103.395 31.0552C104.195 31.0552 104.835 31.2652 105.315 31.6852C105.805 32.0952 106.05 32.6102 106.05 33.2302C106.05 33.9902 105.75 34.5502 105.15 34.9102Z" fill="white"/>
<path d="M93.4974 31.0552C94.5474 31.0552 95.4424 31.4402 96.1824 32.2102C96.9224 32.9802 97.2924 33.9102 97.2924 35.0002C97.2924 36.1002 96.9224 37.0352 96.1824 37.8052C95.4524 38.5652 94.5574 38.9452 93.4974 38.9452C92.2574 38.9452 91.3124 38.4502 90.6624 37.4602V41.7502H89.3574V31.2502H90.6624V32.5402C91.3124 31.5502 92.2574 31.0552 93.4974 31.0552ZM93.3324 37.6852C94.0824 37.6852 94.7124 37.4302 95.2224 36.9202C95.7324 36.3902 95.9874 35.7502 95.9874 35.0002C95.9874 34.2402 95.7324 33.6052 95.2224 33.0952C94.7124 32.5752 94.0824 32.3152 93.3324 32.3152C92.5724 32.3152 91.9374 32.5752 91.4274 33.0952C90.9174 33.6052 90.6624 34.2402 90.6624 35.0002C90.6624 35.7502 90.9174 36.3902 91.4274 36.9202C91.9374 37.4302 92.5724 37.6852 93.3324 37.6852Z" fill="white"/>
<path d="M82.5439 31.25H88.9639V32.51H86.4139V38.75H85.1089V32.51H82.5439V31.25Z" fill="white"/>
<path d="M80.8423 34.37V31.25H82.1473V38.75H80.8423V35.615H76.9573V38.75H75.6523V31.25H76.9573V34.37H80.8423Z" fill="white"/>
<path d="M74.8573 35.6002H68.5723C68.7023 36.2602 69.0073 36.7802 69.4873 37.1602C69.9673 37.5302 70.5673 37.7152 71.2873 37.7152C72.2773 37.7152 72.9973 37.3502 73.4473 36.6202L74.5573 37.2502C73.8173 38.3802 72.7173 38.9452 71.2573 38.9452C70.0773 38.9452 69.1073 38.5752 68.3473 37.8352C67.6073 37.0752 67.2373 36.1302 67.2373 35.0002C67.2373 33.8602 67.6023 32.9202 68.3323 32.1802C69.0623 31.4302 70.0073 31.0552 71.1673 31.0552C72.2673 31.0552 73.1623 31.4452 73.8523 32.2252C74.5523 32.9852 74.9023 33.9152 74.9023 35.0152C74.9023 35.2052 74.8873 35.4002 74.8573 35.6002ZM71.1673 32.2852C70.4773 32.2852 69.8973 32.4802 69.4273 32.8702C68.9673 33.2602 68.6823 33.7902 68.5723 34.4602H73.5823C73.4723 33.7702 73.1973 33.2352 72.7573 32.8552C72.3173 32.4752 71.7873 32.2852 71.1673 32.2852Z" fill="white"/>
<path d="M66.0793 31.25V37.505H67.3093V40.76H66.0193V38.75H59.7793V31.25H61.0843V37.505H64.7743V31.25H66.0793Z" fill="white"/>
<path d="M32.3125 19.6045L13.8418 38.75H0.789062V0.75H14.1211L32.3125 19.6045ZM50.7891 38.75H23.3174L41.7891 19.6055L23.5957 0.75H50.7891V38.75Z" fill="white"/>
</svg>
