<svg width="80" height="100" viewBox="0 0 80 100" fill="none" xmlns="http://www.w3.org/2000/svg">
<g clip-path="url(#clip0_2001_886)">
<path fill-rule="evenodd" clip-rule="evenodd" d="M3.63121e-05 39.9982C3.63121e-05 17.9087 17.9089 0 40.0015 0C62.0912 0 80 17.9087 80 39.9982C80 51.043 75.525 61.0388 68.2925 68.2772C66.4027 70.167 63.8443 72.2767 61.0779 74.5617C53.2452 81.0246 43.7396 88.8691 42.9997 96.9989C42.8511 98.648 41.6566 100 39.9985 100C38.3434 100 37.1489 98.648 37.0003 96.9989C36.2605 88.8691 26.7548 81.0246 18.9221 74.5617C16.1587 72.2767 13.6003 70.167 11.7105 68.2772C4.20012 60.7842 -0.0142714 50.6071 3.63121e-05 39.9982ZM54.0029 40.0012C54.1155 47.7331 47.9389 54.0923 40.2069 54.2049C32.475 54.3176 26.1157 48.1409 26.0031 40.409C26.0011 40.2731 26.0011 40.1371 26.0031 40.0012C26.1157 32.2693 32.475 26.0927 40.2069 26.2053C47.7801 26.3156 53.8926 32.4281 54.0029 40.0012Z" fill="url(#paint0_linear_2001_886)"/>
<path fill-rule="evenodd" clip-rule="evenodd" d="M3.63121e-05 39.9982C3.63121e-05 17.9087 17.9089 0 40.0015 0C62.0912 0 80 17.9087 80 39.9982C80 51.043 75.525 61.0388 68.2925 68.2772C66.4027 70.167 63.8443 72.2767 61.0779 74.5617C53.2452 81.0246 43.7396 88.8691 42.9997 96.9989C42.8511 98.648 41.6566 100 39.9985 100C38.3434 100 37.1489 98.648 37.0003 96.9989C36.2605 88.8691 26.7548 81.0246 18.9221 74.5617C16.1587 72.2767 13.6003 70.167 11.7105 68.2772C4.20012 60.7842 -0.0142714 50.6071 3.63121e-05 39.9982ZM54.0029 40.0012C54.1155 47.7331 47.9389 54.0923 40.2069 54.2049C32.475 54.3176 26.1157 48.1409 26.0031 40.409C26.0011 40.2731 26.0011 40.1371 26.0031 40.0012C26.1157 32.2693 32.475 26.0927 40.2069 26.2053C47.7801 26.3156 53.8926 32.4281 54.0029 40.0012Z" fill="#FF4433"/>
</g>
<defs>
<linearGradient id="paint0_linear_2001_886" x1="40" y1="0" x2="40" y2="100" gradientUnits="userSpaceOnUse">
<stop stop-color="#FF6122"/>
<stop offset="1" stop-color="#F22411"/>
</linearGradient>
<clipPath id="clip0_2001_886">
<rect width="80" height="100" fill="white"/>
</clipPath>
</defs>
</svg>
