<svg width="100" height="100" viewBox="0 0 100 100" fill="none" xmlns="http://www.w3.org/2000/svg">
<g clip-path="url(#clip0_2001_8933)">
<mask id="mask0_2001_8933" style="mask-type:luminance" maskUnits="userSpaceOnUse" x="0" y="0" width="100" height="100">
<path d="M75.17 99.9537C77.3796 99.9075 79.6046 99.7683 81.7829 99.3825C83.9925 98.9808 86.0629 98.3633 88.0717 97.3287C90.065 96.3404 91.8725 95.0279 93.4333 93.4837C94.9938 91.9396 96.3225 90.1483 97.3117 88.1871C98.3312 86.195 98.9804 84.1725 99.3821 81.9796C99.7837 79.8179 99.9075 77.625 99.9538 75.4325C99.9846 74.4287 99.9846 73.425 100 72.4212V27.5633C100 26.5596 100 25.5559 99.9538 24.5522C99.9075 22.3749 99.7683 20.1668 99.3821 18.005C98.9804 15.8122 98.3313 13.7739 97.3117 11.7974C96.3071 9.85175 94.9938 8.06054 93.4333 6.50092C91.8725 4.95675 90.0496 3.64422 88.0717 2.65596C86.0475 1.65225 83.9925 1.0037 81.7829 0.602225C79.6046 0.216183 77.3796 0.0772083 75.17 0.0308832C74.7529 0.0308832 74.3354 0.0154416 73.6558 0H29.1255L24.861 0.0463254C22.6514 0.0926504 20.4265 0.231625 18.2478 0.617667C16.0383 1.01915 13.9679 1.65225 11.9592 2.6714C9.966 3.65967 8.15821 4.97221 6.59767 6.51638C5.03708 8.06054 3.70828 9.85175 2.71941 11.8128C1.68418 13.8048 1.05068 15.8277 0.64895 18.0204C0.231767 20.1822 0.108158 22.3749 0.0463529 24.5676C0.0154512 25.5713 0.0154512 26.575 0 27.5787V72.4367C0 73.4404 0.0154512 74.4442 0.0463533 75.4479C0.0927071 77.625 0.231768 79.8333 0.618046 81.995C1.01978 84.1879 1.66872 86.2262 2.6885 88.2025C3.69283 90.1483 5.00617 91.9396 6.56675 93.4992C8.12733 95.0433 9.95054 96.3558 11.9283 97.3442C13.9524 98.3479 16.0074 98.9962 18.2169 99.3979C20.3955 99.7837 22.6205 99.9229 24.83 99.9692C25.2472 99.9692 25.6644 99.9846 26.3443 100H68.5104L75.1392 99.9692C75.1392 99.9692 75.17 99.9538 75.17 99.9537Z" fill="white"/>
</mask>
<g mask="url(#mask0_2001_8933)">
<path d="M0 0H100V100H0V0Z" fill="#19AA1E"/>
<path fill-rule="evenodd" clip-rule="evenodd" d="M0 0H100V32.8125L0 17.1875V0Z" fill="#FFB919"/>
<path fill-rule="evenodd" clip-rule="evenodd" d="M0 89.0625L100 73.4375V100H0V89.0625Z" fill="#82D714"/>
<path fill-rule="evenodd" clip-rule="evenodd" d="M0 15.2109L34.9058 20.6649C39.251 17.9145 44.4204 16.4065 50 16.4065C57.7279 16.4065 64.6692 19.2994 69.7233 24.3795C70.3613 25.0206 70.9629 25.6908 71.5267 26.387L100 30.8359V34.7895L74.4179 30.7923C76.3183 34.4396 77.3438 38.5032 77.3438 42.6502C77.3438 48.0077 76.1454 53.3494 73.6683 58.7127L73.5929 58.8752L72.5408 61.1294H70.0529C64.9158 61.1294 61.5083 62.6661 59.2804 65.3894C57.5313 67.5277 56.5196 70.4102 56.1792 73.5552L56.1688 73.6536L56.1192 74.156L56.0979 74.3748L56.0575 74.8023C55.9271 76.2065 55.84 77.3973 55.7958 78.3677L100 71.4611V75.4144L0 91.0394V87.0861L44.2537 80.1711L44.2346 79.2836L44.2288 79.0331L44.225 78.9048L44.2179 78.7069C44.1783 77.6306 44.0796 76.2511 43.9217 74.579L43.8912 74.2619L43.8371 73.7127C43.5196 70.5511 42.5229 67.6319 40.7784 65.4619C38.5738 62.7202 35.1977 61.1611 30.1019 61.1298L29.947 61.1294H27.4592L26.4072 58.8752C23.879 53.4573 22.6562 48.0619 22.6562 42.6502C22.6562 35.8447 25.4172 29.2639 30.2767 24.3795C30.417 24.2385 30.5587 24.0992 30.7018 23.9616L0 19.1645V15.2109Z" fill="white"/>
<path fill-rule="evenodd" clip-rule="evenodd" d="M50 20.3125C63.9608 20.3125 73.4375 31.0582 73.4375 42.65C73.4375 47.3037 72.4221 52.1462 70.0529 57.2229C56.3154 57.2229 52.9246 67.0612 52.2833 73.2512L52.2425 73.6637C52.025 75.8729 51.8996 77.6454 51.865 78.9817L48.1442 79.5633L48.1433 79.4429C48.1292 78.0421 47.9967 76.0771 47.7463 73.5479L47.7354 73.4375C47.1429 67.2608 43.8233 57.2229 29.947 57.2229C27.5778 52.1462 26.5625 47.3037 26.5625 42.65C26.5625 31.0582 36.039 20.3125 50 20.3125Z" fill="#0073FA"/>
</g>
</g>
<defs>
<clipPath id="clip0_2001_8933">
<rect width="100" height="100" fill="white"/>
</clipPath>
</defs>
</svg>
