<svg width="0" height="0" class="hidden">
  <symbol fill="none" xmlns="http://www.w3.org/2000/svg" viewBox="0 0 24 24" id="ic_arr_hor">
    <path d="M13 17L8 12L13 7" stroke="currentColor" stroke-width="2" stroke-linecap="round" stroke-linejoin="round"></path>
  </symbol>
  <symbol fill="none" xmlns="http://www.w3.org/2000/svg" viewBox="0 0 12 8" id="ic_arr_ver">
    <path d="M1 1.5L6 6.5L11 1.5" stroke="currentColor" stroke-width="2" stroke-linecap="round" stroke-linejoin="round"></path>
  </symbol>
  <symbol fill="none" xmlns="http://www.w3.org/2000/svg" viewBox="0 0 24 24" id="ic_arrow_hor">
    <path d="M13 7L18 12M18 12L13 17M18 12L6 12" stroke="currentColor" stroke-width="2" stroke-linecap="round" stroke-linejoin="round"></path>
  </symbol>
  <symbol fill="none" xmlns="http://www.w3.org/2000/svg" viewBox="0 0 24 24" id="ic_briefcase">
    <path d="M8.79234 20.6666H15.459C18.809 20.6666 19.409 19.3249 19.584 17.6916L20.209 11.0249C20.434 8.99159 19.8507 7.33325 16.2923 7.33325H7.959C4.40067 7.33325 3.81734 8.99159 4.04234 11.0249L4.66734 17.6916C4.84234 19.3249 5.44234 20.6666 8.79234 20.6666Z" stroke="currentColor" stroke-width="1.5" stroke-miterlimit="10" stroke-linecap="round" stroke-linejoin="round"></path>
    <path d="M8.79248 7.33333V6.66667C8.79248 5.19167 8.79248 4 11.4591 4H12.7925C15.4591 4 15.4591 5.19167 15.4591 6.66667V7.33333" stroke="currentColor" stroke-width="1.5" stroke-miterlimit="10" stroke-linecap="round" stroke-linejoin="round"></path>
    <path d="M13.7923 13.1666V13.9999C13.7923 14.0083 13.7923 14.0083 13.7923 14.0166C13.7923 14.9249 13.784 15.6666 12.1257 15.6666C10.4757 15.6666 10.459 14.9333 10.459 14.0249V13.1666C10.459 12.3333 10.459 12.3333 11.2923 12.3333H12.959C13.7923 12.3333 13.7923 12.3333 13.7923 13.1666Z" stroke="currentColor" stroke-width="1.5" stroke-miterlimit="10" stroke-linecap="round" stroke-linejoin="round"></path>
    <path d="M20.1675 11.5C18.2425 12.9 16.0425 13.7333 13.7925 14.0167" stroke="currentColor" stroke-width="1.5" stroke-miterlimit="10" stroke-linecap="round" stroke-linejoin="round"></path>
    <path d="M4.30908 11.7249C6.18408 13.0082 8.30075 13.7832 10.4591 14.0249" stroke="currentColor" stroke-width="1.5" stroke-miterlimit="10" stroke-linecap="round" stroke-linejoin="round"></path>
  </symbol>
  <symbol fill="none" xmlns="http://www.w3.org/2000/svg" viewBox="0 0 24 24" id="ic_cards">
    <path d="M3 10H21M7 15H8M12 15H13M6 19H18C19.6569 19 21 17.6569 21 16V8C21 6.34315 19.6569 5 18 5H6C4.34315 5 3 6.34315 3 8V16C3 17.6569 4.34315 19 6 19Z" stroke="currentColor" stroke-width="1.6" stroke-linecap="round" stroke-linejoin="round"></path>
  </symbol>
  <symbol fill="none" xmlns="http://www.w3.org/2000/svg" viewBox="0 0 24 24" id="ic_car">
    <path d="M8.02734 5.5H12.8584C13.6543 5.5 14.3911 5.92027 14.7959 6.60547L14.8115 6.63281L14.8311 6.65723L17.3389 9.9043L17.4453 10.041L17.6133 10.084L19.7959 10.6289C20.7973 10.8793 21.4999 11.7792 21.5 12.8115V14.5C21.5 15.4011 20.9704 16.1796 20.2031 16.5391L19.9834 16.6416L19.9277 16.8779C19.6438 18.0942 18.5522 19 17.25 19C16.0274 19 14.99 18.2017 14.6328 17.0967L14.5205 16.75H8.97949L8.86719 17.0967C8.51 18.2017 7.47263 19 6.25 19C4.8434 19 3.68266 17.9435 3.51953 16.5811L3.49512 16.3789L3.33691 16.251C3.26061 16.1893 3.18964 16.1217 3.12207 16.0508L3.92285 14.7842C4.41078 14.0115 5.27085 13.5 6.25 13.5C7.6244 13.5 8.76428 14.5088 8.96777 15.8262L9.0332 16.25H14.4668L14.5322 15.8262C14.7357 14.5088 15.8756 13.5 17.25 13.5C18.4442 13.5 19.4622 14.2618 19.8418 15.3271L20.1895 16.3037L20.7373 15.4229C20.9039 15.1547 21 14.8378 21 14.5V12.8115C20.9999 12.0085 20.453 11.309 19.6738 11.1143L17.2773 10.5146L17.2178 10.5H4.75C3.78351 10.5 3 11.2834 3 12.25V14.5205L3.00879 15.9238C2.69087 15.5356 2.5 15.0404 2.5 14.5V12.25C2.5 11.0987 3.36511 10.1484 4.48047 10.0156L4.78125 9.98047L4.88867 9.69824L5.8418 7.20508L5.85059 7.18164L5.85645 7.1582C6.1234 6.17939 7.01281 5.50011 8.02734 5.5ZM6.25 14C5.00736 14 4 15.0074 4 16.25C4 17.4926 5.00736 18.5 6.25 18.5C7.49264 18.5 8.5 17.4926 8.5 16.25C8.5 15.0074 7.49264 14 6.25 14ZM17.25 14C16.0074 14 15 15.0074 15 16.25C15 17.4926 16.0074 18.5 17.25 18.5C18.4926 18.5 19.5 17.4926 19.5 16.25C19.5 15.0074 18.4926 14 17.25 14ZM8.02734 6C7.25099 6.00011 6.56911 6.51138 6.34961 7.25293L5.51855 9.3125L5.24121 10H10V6H8.02734ZM10.5 10H17.0059L16.3174 9.17871L14.3359 6.81348C14.0158 6.30824 13.459 6 12.8584 6H10.5V10Z" fill="currentColor" stroke="currentColor"></path>
  </symbol>
  <symbol fill="none" xmlns="http://www.w3.org/2000/svg" viewBox="0 0 24 24" id="ic_close">
    <path d="M18 6L6 18M6 6L18 18" stroke="currentColor" stroke-width="1.6" stroke-linecap="round" stroke-linejoin="round"></path>
  </symbol>
  <symbol fill="none" xmlns="http://www.w3.org/2000/svg" viewBox="0 0 16 16" id="ic_check">
    <path d="M12.736 3.96993C12.8042 3.9003 12.8857 3.84498 12.9756 3.80722C13.0655 3.76945 13.162 3.75 13.2595 3.75C13.357 3.75 13.4535 3.76945 13.5434 3.80722C13.6333 3.84498 13.7147 3.9003 13.783 3.96993C14.069 4.25893 14.073 4.72593 13.793 5.01993L7.87998 12.0099C7.81285 12.0837 7.73138 12.1429 7.64056 12.1841C7.54974 12.2252 7.45148 12.2474 7.35179 12.2493C7.2521 12.2511 7.15307 12.2327 7.06077 12.1949C6.96847 12.1572 6.88483 12.1011 6.81498 12.0299L3.21698 8.38393C3.07822 8.24242 3.00049 8.05213 3.00049 7.85393C3.00049 7.65574 3.07822 7.46545 3.21698 7.32393C3.28523 7.2543 3.36668 7.19898 3.45657 7.16122C3.54646 7.12345 3.64298 7.104 3.74048 7.104C3.83798 7.104 3.9345 7.12345 4.02439 7.16122C4.11428 7.19898 4.19573 7.2543 4.26398 7.32393L7.31598 10.4169L12.716 3.99193C12.7222 3.98421 12.7289 3.97686 12.736 3.96993Z" fill="currentColor"></path>
  </symbol>
  <symbol fill="none" xmlns="http://www.w3.org/2000/svg" viewBox="0 0 24 24" id="ic_comes_back">
    <path d="M8.75 4.88889H6.875C5.83947 4.88889 5 5.73457 5 6.77778V18.1111C5 19.1543 5.83947 20 6.875 20H16.25C17.2855 20 18.125 19.1543 18.125 18.1111V17.1667M8.75 4.88889C8.75 5.93209 9.58947 6.77778 10.625 6.77778H12.5C13.5355 6.77778 14.375 5.93209 14.375 4.88889M8.75 4.88889C8.75 3.84568 9.58947 3 10.625 3H12.5C13.5355 3 14.375 3.84568 14.375 4.88889M14.375 4.88889H16.25C17.2855 4.88889 18.125 5.73457 18.125 6.77778V9.61111M20 13.3889H10.625M10.625 13.3889L13.4375 10.5556M10.625 13.3889L13.4375 16.2222" stroke="currentColor" stroke-width="1.6" stroke-linecap="round" stroke-linejoin="round"></path>
  </symbol>
  <symbol fill="none" xmlns="http://www.w3.org/2000/svg" viewBox="0 0 24 24" id="ic_document">
    <path d="M8.71429 12H14.2857M8.71429 15.5556H14.2857M16.1429 20H6.85714C5.83147 20 5 19.2041 5 18.2222V5.77778C5 4.79594 5.83147 4 6.85714 4H12.0439C12.2902 4 12.5264 4.09365 12.7005 4.26035L17.728 9.07298C17.9022 9.23968 18 9.46578 18 9.70152V18.2222C18 19.2041 17.1685 20 16.1429 20Z" stroke="currentColor" stroke-width="1.6" stroke-linecap="round" stroke-linejoin="round"></path>
  </symbol>
  <symbol fill="none" xmlns="http://www.w3.org/2000/svg" viewBox="0 0 24 24" id="ic_document2">
    <path d="M12 4L4 8L12 12L20 8L12 4Z" stroke="currentColor" stroke-width="1.6" stroke-linecap="round" stroke-linejoin="round"></path>
    <path d="M4 16L12 20L20 16" stroke="currentColor" stroke-width="1.6" stroke-linecap="round" stroke-linejoin="round"></path>
    <path d="M4 12L12 16L20 12" stroke="currentColor" stroke-width="1.6" stroke-linecap="round" stroke-linejoin="round"></path>
  </symbol>
  <symbol fill="none" xmlns="http://www.w3.org/2000/svg" viewBox="0 0 24 24" id="ic_email">
    <path d="M5 17.2951V9.68301C5 9.11297 5.2785 8.58065 5.74217 8.26445L11.5755 4.28634C12.1353 3.90455 12.8647 3.90455 13.4245 4.28634L19.2578 8.26445C19.7215 8.58065 20 9.11297 20 9.68301V17.2951M5 17.2951C5 18.2367 5.74619 19 6.66667 19H18.3333C19.2538 19 20 18.2367 20 17.2951M5 17.2951L10.625 13.4591M20 17.2951L14.375 13.4591M5 9.62303L10.625 13.4591M20 9.62303L14.375 13.4591M14.375 13.4591L13.4245 14.1073C12.8647 14.4891 12.1353 14.4891 11.5755 14.1073L10.625 13.4591" stroke="currentColor" stroke-width="1.6" stroke-linecap="round" stroke-linejoin="round"></path>
  </symbol>
  <symbol fill="none" xmlns="http://www.w3.org/2000/svg" viewBox="0 0 16 16" id="ic_edit">
    <path d="M9.25879 3.05957C10.2755 2.23077 11.7432 2.23054 12.7598 3.05957L12.9697 3.25L13.1602 3.46094C14.0486 4.55026 13.985 6.15744 12.9697 7.17285L6.50781 13.6357C6.20787 13.9356 5.80009 14.1034 5.37598 14.1035H3.7334C2.84982 14.1035 2.13391 13.3875 2.13379 12.5039V10.8281C2.13379 10.4039 2.30165 9.99632 2.60156 9.69629L9.04785 3.25L9.25879 3.05957ZM11.8389 4.38184C11.3807 3.92366 10.638 3.92386 10.1797 4.38184L3.7334 10.8281V12.5039H5.37598L11.8389 6.04102C12.2967 5.58284 12.2967 4.84004 11.8389 4.38184Z" fill="currentColor"></path>
    <line x1="8.84596" y1="4.78978" x2="11.4275" y2="7.37137" stroke="currentColor" stroke-width="1.6"></line>
  </symbol>
  <symbol fill="none" xmlns="http://www.w3.org/2000/svg" viewBox="0 0 24 24" id="ic_extension">
    <path d="M9 12L11 14L15 10M21 12C21 16.9706 16.9706 21 12 21C7.02944 21 3 16.9706 3 12C3 7.02944 7.02944 3 12 3C16.9706 3 21 7.02944 21 12Z" stroke="currentColor" stroke-width="1.6" stroke-linecap="round" stroke-linejoin="round"></path>
  </symbol>
  <symbol fill="none" xmlns="http://www.w3.org/2000/svg" viewBox="0 0 20 20" id="ic_eye">
    <path d="M12.3576 10.5019C12.3576 11.8041 11.3019 12.8598 9.99965 12.8598C8.69739 12.8598 7.6417 11.8041 7.6417 10.5019C7.6417 9.19962 8.69739 8.14393 9.99965 8.14393C11.3019 8.14393 12.3576 9.19962 12.3576 10.5019Z" stroke="currentColor" stroke-width="1.6" stroke-linecap="round" stroke-linejoin="round"></path>
    <path d="M2.5 10.5019C3.50156 7.31305 6.48065 5 9.99999 5C13.5193 5 16.4985 7.31308 17.5 10.5019C16.4984 13.6907 13.5193 16.0038 10 16.0038C6.48065 16.0038 3.50154 13.6907 2.5 10.5019Z" stroke="currentColor" stroke-width="1.6" stroke-linecap="round" stroke-linejoin="round"></path>
  </symbol>
  <symbol fill="none" xmlns="http://www.w3.org/2000/svg" viewBox="0 0 20 20" id="ic_eye_close">
    <path d="M2.9258 3.42578L5.74682 6.2468M17.0735 17.5735L14.2528 14.7527M11.4733 15.8637C10.996 15.9541 10.5036 16.0015 10 16.0015C6.48065 16.0015 3.50154 13.6884 2.5 10.4996C2.77266 9.6315 3.19187 8.82832 3.72863 8.11903M8.33233 8.8323C8.75903 8.4056 9.34852 8.14168 9.99965 8.14168C11.3019 8.14168 12.3576 9.19736 12.3576 10.4996C12.3576 11.1508 12.0937 11.7402 11.667 12.1669M8.33233 8.8323L11.667 12.1669M8.33233 8.8323L5.74682 6.2468M11.667 12.1669L5.74682 6.2468M11.667 12.1669L14.2528 14.7527M5.74682 6.2468C6.97281 5.4564 8.43284 4.99775 9.99999 4.99775C13.5193 4.99775 16.4985 7.31082 17.5 10.4997C16.9444 12.2687 15.7802 13.7681 14.2528 14.7527" stroke="currentColor" stroke-width="1.6" stroke-linecap="round" stroke-linejoin="round"></path>
  </symbol>
  <symbol fill="none" xmlns="http://www.w3.org/2000/svg" viewBox="0 0 24 24" id="ic_file">
    <path d="M7.71429 20H16.2857C17.2325 20 18 19.2041 18 18.2222V9.70152C18 9.46578 18 9 18 9L13 4.00001C13 4.00001 12.7294 4 12.5021 4H7.71429C6.76751 4 6 4.79594 6 5.77778V18.2222C6 19.2041 6.76751 20 7.71429 20Z" fill="currentColor"></path>
    <path d="M13 9V4L18 9H13Z" fill="#BABAEE"></path>
  </symbol>
  <symbol fill="none" xmlns="http://www.w3.org/2000/svg" viewBox="0 0 24 24" id="ic_hand">
    <path d="M7 11.5V14M7 11.5V5.5C7 4.67157 7.67157 4 8.5 4C9.32843 4 10 4.67157 10 5.5M7 11.5C7 10.6716 6.32843 10 5.5 10C4.67157 10 4 10.6716 4 11.5V13.5C4 17.6421 7.35786 21 11.5 21C15.6421 21 19 17.6421 19 13.5V8.5C19 7.67157 18.3284 7 17.5 7C16.6716 7 16 7.67157 16 8.5M10 5.5V11M10 5.5V4.5C10 3.67157 10.6716 3 11.5 3C12.3284 3 13 3.67157 13 4.5V5.5M13 5.5V11M13 5.5C13 4.67157 13.6716 4 14.5 4C15.3284 4 16 4.67157 16 5.5V8.5M16 8.5V11" stroke="currentColor" stroke-width="1.6" stroke-linecap="round" stroke-linejoin="round"></path>
  </symbol>
  <symbol fill="none" xmlns="http://www.w3.org/2000/svg" viewBox="0 0 24 24" id="ic_home">
    <path d="M5 12L6.55556 10.4444M6.55556 10.4444L12 5L17.4444 10.4444M6.55556 10.4444V18.2222C6.55556 18.6518 6.90378 19 7.33333 19H9.66667M17.4444 10.4444L19 12M17.4444 10.4444V18.2222C17.4444 18.6518 17.0962 19 16.6667 19H14.3333M9.66667 19C10.0962 19 10.4444 18.6518 10.4444 18.2222V15.1111C10.4444 14.6816 10.7927 14.3333 11.2222 14.3333H12.7778C13.2073 14.3333 13.5556 14.6816 13.5556 15.1111V18.2222C13.5556 18.6518 13.9038 19 14.3333 19M9.66667 19H14.3333" stroke="currentColor" stroke-width="1.6" stroke-linecap="round" stroke-linejoin="round"></path>
  </symbol>
  <symbol fill="none" xmlns="http://www.w3.org/2000/svg" viewBox="0 0 24 24" id="ic_key">
    <path d="M12 2C12.3099 2 12.6132 2.02819 12.9075 2.08215C12.3012 2.48501 11.7664 2.98693 11.3261 3.56481C9.71557 3.87892 8.5 5.29751 8.5 7C8.5 7.31593 8.54167 7.62098 8.6194 7.91045C8.68892 8.16937 8.61495 8.4457 8.42538 8.63527L3.5 13.5607V16.5H5.5V14.75C5.5 14.3358 5.83579 14 6.25 14H8.5V12.75C8.5 12.5511 8.57902 12.3603 8.71967 12.2197L10.6346 10.3047C10.8579 10.7708 11.135 11.2061 11.458 11.6026L10 13.0607V14.75C10 15.1642 9.66421 15.5 9.25 15.5H7V17.25C7 17.6642 6.66421 18 6.25 18H2.75C2.33579 18 2 17.6642 2 17.25V13.25C2 13.0511 2.07902 12.8603 2.21967 12.7197L7.07463 7.86471C7.02553 7.58344 7 7.29445 7 7C7 4.23858 9.23858 2 12 2ZM16.5 3.5C14.2909 3.5 12.5 5.29086 12.5 7.5C12.5 9.02257 13.3504 10.3477 14.6058 11.0241C14.8486 11.1549 15 11.4085 15 11.6843V19.4182L17.0174 21.2522L19.1399 19.4535L18.2188 18.5295C17.9271 18.2368 17.9271 17.7632 18.2188 17.4705L19.1862 16.5L18.2188 15.5295C18.0787 15.3889 18 15.1985 18 15V11.6843C18 11.4085 18.1514 11.1549 18.3942 11.0241C19.6496 10.3477 20.5 9.02257 20.5 7.5C20.5 5.29086 18.7091 3.5 16.5 3.5ZM11 7.5C11 4.46243 13.4624 2 16.5 2C19.5376 2 22 4.46243 22 7.5C22 9.43176 21.0039 11.1299 19.5 12.1104V14.69L20.7764 15.9705C21.0682 16.2632 21.0682 16.7368 20.7764 17.0295L19.809 18L20.7764 18.9705C20.9243 19.1188 21.0034 19.3222 20.9946 19.5315C20.9858 19.7407 20.8899 19.9368 20.7301 20.0722L17.4849 22.8222C17.1975 23.0657 16.7742 23.0583 16.4955 22.805L13.7455 20.305C13.5891 20.1628 13.5 19.9613 13.5 19.75V12.1104C11.9961 11.1299 11 9.43176 11 7.5ZM17.5 6.5C17.5 7.05228 17.0523 7.5 16.5 7.5C15.9477 7.5 15.5 7.05228 15.5 6.5C15.5 5.94772 15.9477 5.5 16.5 5.5C17.0523 5.5 17.5 5.94772 17.5 6.5Z" fill="currentColor"></path>
  </symbol>
  <symbol fill="none" xmlns="http://www.w3.org/2000/svg" viewBox="0 0 24 24" id="ic_lightning">
    <path d="M13 10V3L4 14H11L11 21L20 10L13 10Z" stroke="currentColor" stroke-width="1.6" stroke-linecap="round" stroke-linejoin="round"></path>
  </symbol>
  <symbol fill="none" xmlns="http://www.w3.org/2000/svg" viewBox="0 0 16 16" id="ic_login">
    <path d="M10 2H12.6667C13.0203 2 13.3594 2.14048 13.6095 2.39052C13.8595 2.64057 14 2.97971 14 3.33333V12.6667C14 13.0203 13.8595 13.3594 13.6095 13.6095C13.3594 13.8595 13.0203 14 12.6667 14H10M6.66667 11.3333L10 8M10 8L6.66667 4.66667M10 8H2" stroke="currentColor" stroke-width="1.6" stroke-linecap="round" stroke-linejoin="round"></path>
  </symbol>
  <symbol fill="none" xmlns="http://www.w3.org/2000/svg" viewBox="0 0 24 24" id="ic_notice">
    <path d="M12 8V12M12 16H12.01M21 12C21 16.9706 16.9706 21 12 21C7.02944 21 3 16.9706 3 12C3 7.02944 7.02944 3 12 3C16.9706 3 21 7.02944 21 12Z" stroke="currentColor" stroke-width="1.6" stroke-linecap="round" stroke-linejoin="round"></path>
  </symbol>
  <symbol fill="none" xmlns="http://www.w3.org/2000/svg" viewBox="0 0 24 24" id="ic_notification">
    <path d="M11.9996 3.40039C13.4812 3.40039 14.6547 4.4339 14.9957 5.7627C16.8642 6.84601 18.0992 8.90046 18.0992 11.2227V13.6787C18.0992 13.6827 18.0996 13.6863 18.1002 13.6885L19.151 14.7783C19.5965 15.2404 19.7233 15.9239 19.4723 16.5146C19.2212 17.1053 18.6414 17.4893 17.9996 17.4893H5.99963C5.35794 17.4891 4.77794 17.1053 4.52698 16.5146C4.27608 15.924 4.40292 15.2403 4.84827 14.7783L5.89905 13.6885C5.89969 13.6863 5.90002 13.6828 5.90002 13.6787V11.2227C5.90002 8.90088 7.13467 6.84617 9.00256 5.7627C9.34349 4.43386 10.5181 3.40057 11.9996 3.40039ZM11.9996 5C11.1714 5.00021 10.4996 5.69669 10.4996 6.55566V6.82129C8.75205 7.46204 7.49963 9.19091 7.49963 11.2227V13.6787C7.49963 14.0977 7.33902 14.4996 7.05334 14.7959L5.99963 15.8887H17.9996L16.9459 14.7959C16.6604 14.4996 16.4996 14.0976 16.4996 13.6787V11.2227C16.4996 9.19078 15.2474 7.46194 13.4996 6.82129V6.55566C13.4996 5.69655 12.8281 5 11.9996 5Z" fill="currentColor"></path>
    <path d="M14.6133 17C14.7323 17.3108 14.7998 17.6473 14.7998 18C14.7998 19.5464 13.5464 20.7998 12 20.7998C10.4536 20.7998 9.2002 19.5464 9.2002 18C9.2002 17.6473 9.26773 17.3108 9.38672 17H11.3369C11.0133 17.215 10.7998 17.5825 10.7998 18C10.7998 18.6627 11.3373 19.2002 12 19.2002C12.6627 19.2002 13.2002 18.6627 13.2002 18C13.2002 17.5825 12.9867 17.215 12.6631 17H14.6133Z" fill="currentColor"></path>
  </symbol>
  <symbol fill="none" xmlns="http://www.w3.org/2000/svg" viewBox="0 0 24 24" id="ic_percents">
    <path d="M17 7L7 17" stroke="currentColor" stroke-width="1.7" stroke-linecap="round" stroke-linejoin="round"></path>
    <path d="M8 10C9.10457 10 10 9.10457 10 8C10 6.89543 9.10457 6 8 6C6.89543 6 6 6.89543 6 8C6 9.10457 6.89543 10 8 10Z" stroke="currentColor" stroke-width="1.7" stroke-linecap="round" stroke-linejoin="round"></path>
    <path d="M16 18C17.1046 18 18 17.1046 18 16C18 14.8954 17.1046 14 16 14C14.8954 14 14 14.8954 14 16C14 17.1046 14.8954 18 16 18Z" stroke="currentColor" stroke-width="1.7" stroke-linecap="round" stroke-linejoin="round"></path>
  </symbol>
  <symbol fill="none" xmlns="http://www.w3.org/2000/svg" viewBox="0 0 24 24" id="ic_phone">
    <path d="M4 5.77778C4 4.79594 4.79594 4 5.77778 4H8.69266C9.07526 4 9.41494 4.24483 9.53593 4.6078L10.8673 8.60197C11.0072 9.02162 10.8172 9.48028 10.4216 9.6781L8.41512 10.6813C9.39489 12.8544 11.1456 14.6051 13.3187 15.5849L14.3219 13.5784C14.5197 13.1828 14.9784 12.9928 15.398 13.1327L19.3922 14.4641C19.7552 14.5851 20 14.9247 20 15.3073V18.2222C20 19.2041 19.2041 20 18.2222 20H17.3333C9.96954 20 4 14.0305 4 6.66667V5.77778Z" stroke="currentColor" stroke-width="1.6" stroke-linecap="round" stroke-linejoin="round"></path>
  </symbol>
  <symbol fill="none" xmlns="http://www.w3.org/2000/svg" viewBox="0 0 16 16" id="ic_remove">
    <path d="M12.6665 4.66667L12.0883 12.7617C12.0385 13.4594 11.4579 14 10.7583 14H5.24133C4.54181 14 3.96122 13.4594 3.91138 12.7617L3.33317 4.66667M6.6665 7.33333V11.3333M9.33317 7.33333V11.3333M9.99984 4.66667V2.66667C9.99984 2.29848 9.70136 2 9.33317 2H6.6665C6.29831 2 5.99984 2.29848 5.99984 2.66667V4.66667M2.6665 4.66667H13.3332" stroke="currentColor" stroke-width="1.6" stroke-linecap="round" stroke-linejoin="round"></path>
  </symbol>
  <symbol fill="none" xmlns="http://www.w3.org/2000/svg" viewBox="0 0 24 24" id="ic_shield">
    <path d="M9 12L11 14L15 10M20.6179 5.98434C20.4132 5.99472 20.2072 5.99997 20 5.99997C16.9265 5.99997 14.123 4.84453 11.9999 2.94434C9.87691 4.84446 7.07339 5.99985 4 5.99985C3.79277 5.99985 3.58678 5.9946 3.38213 5.98422C3.1327 6.94783 3 7.95842 3 9.00001C3 14.5915 6.82432 19.2898 12 20.622C17.1757 19.2898 21 14.5915 21 9.00001C21 7.95847 20.8673 6.94791 20.6179 5.98434Z" stroke="currentColor" stroke-width="1.6" stroke-linecap="round" stroke-linejoin="round"></path>
  </symbol>
  <symbol fill="none" xmlns="http://www.w3.org/2000/svg" viewBox="0 0 24 24" id="ic_shield2">
    <path d="M12 9.00001V11M12 15H12.01M20.6179 5.98434C20.4132 5.99472 20.2072 5.99997 20 5.99997C16.9265 5.99997 14.123 4.84453 11.9999 2.94434C9.87691 4.84446 7.07339 5.99985 4 5.99985C3.79277 5.99985 3.58678 5.9946 3.38213 5.98422C3.1327 6.94783 3 7.95842 3 9.00001C3 14.5915 6.82432 19.2898 12 20.622C17.1757 19.2898 21 14.5915 21 9.00001C21 7.95847 20.8673 6.94791 20.6179 5.98434Z" stroke="currentColor" stroke-width="1.6" stroke-linecap="round" stroke-linejoin="round"></path>
  </symbol>
  <symbol fill="none" xmlns="http://www.w3.org/2000/svg" viewBox="0 0 24 25" id="ic_question">
    <path d="M21 12.5C21 17.4706 16.9706 21.5 12 21.5C7.02944 21.5 3 17.4706 3 12.5C3 7.52944 7.02944 3.5 12 3.5C16.9706 3.5 21 7.52944 21 12.5Z" stroke="currentColor" stroke-width="1.6" stroke-linecap="round" stroke-linejoin="round"></path>
    <path d="M11.7334 15.5C12.1814 15.5 12.4054 15.1852 12.472 14.6777C12.5254 13.9774 12.736 13.6089 13.6014 13.0252C14.4987 12.4023 15 11.5957 15 10.4207C15 8.68295 13.7734 7.5 11.9841 7.5C10.6241 7.5 9.59477 8.14525 9.18411 9.1918C9.05966 9.47763 8.997 9.7858 9.00011 10.0967C9.00011 10.6121 9.27077 10.9361 9.72676 10.9361C10.0894 10.9361 10.3334 10.7433 10.4788 10.2672C10.6894 9.49082 11.1787 9.06721 11.9107 9.06721C12.724 9.06721 13.284 9.65213 13.284 10.4889C13.284 11.2272 13.0067 11.6495 12.1881 12.2266C11.3627 12.7944 10.9534 13.4252 10.9534 14.3774V14.5229C10.9534 15.0843 11.2307 15.5 11.7334 15.5Z" fill="currentColor"></path>
    <circle cx="11.75" cy="17.25" r="0.75" fill="currentColor"></circle>
  </symbol>
  <symbol fill="none" xmlns="http://www.w3.org/2000/svg" viewBox="0 0 16 16" id="ic_star">
    <path d="M8 0L10.4721 5.26687L16 6.11146L12 10.2111L12.9443 16L8 13.2669L3.05573 16L4 10.2111L0 6.11146L5.52786 5.26687L8 0Z" fill="currentColor"></path>
  </symbol>
  <symbol fill="none" xmlns="http://www.w3.org/2000/svg" viewBox="0 0 24 24" id="ic_success">
    <path d="M9 12L11 14L15 10M21 12C21 16.9706 16.9706 21 12 21C7.02944 21 3 16.9706 3 12C3 7.02944 7.02944 3 12 3C16.9706 3 21 7.02944 21 12Z" stroke="currentColor" stroke-width="1.6" stroke-linecap="round" stroke-linejoin="round"></path>
  </symbol>
  <symbol fill="none" xmlns="http://www.w3.org/2000/svg" viewBox="0 0 16 16" id="ic_upload">
    <path d="M2.66675 10.6654L2.66675 11.332C2.66675 12.4366 3.56218 13.332 4.66675 13.332L11.3334 13.332C12.438 13.332 13.3334 12.4366 13.3334 11.332L13.3334 10.6654M10.6667 7.9987L8.00008 10.6654M8.00008 10.6654L5.33341 7.9987M8.00008 10.6654L8.00008 2.66536" stroke="currentColor" stroke-width="1.6" stroke-linecap="round" stroke-linejoin="round"></path>
  </symbol>
  <symbol fill="none" xmlns="http://www.w3.org/2000/svg" viewBox="0 0 24 24" id="ic_user">
    <path d="M15.4286 7.33333C15.4286 9.17428 13.8935 10.6667 12 10.6667C10.1065 10.6667 8.57143 9.17428 8.57143 7.33333C8.57143 5.49238 10.1065 4 12 4C13.8935 4 15.4286 5.49238 15.4286 7.33333Z" stroke="currentColor" stroke-width="1.6" stroke-linecap="round" stroke-linejoin="round"></path>
    <path d="M12 13.1667C8.68629 13.1667 6 15.7783 6 19H18C18 15.7783 15.3137 13.1667 12 13.1667Z" stroke="currentColor" stroke-width="1.6" stroke-linecap="round" stroke-linejoin="round"></path>
  </symbol>
  <symbol fill="none" xmlns="http://www.w3.org/2000/svg" viewBox="0 0 13 15" id="ic_video_play">
    <path d="M12.5 7.5L0.5 14.4282L0.500001 0.571796L12.5 7.5Z" fill="currentColor"></path>
  </symbol>
  <symbol fill="none" xmlns="http://www.w3.org/2000/svg" viewBox="0 0 24 24" id="ic_schedule">
    <path d="M7.73684 6.85714C7.73684 6.38376 8.16099 6 8.68421 6H10.5789C11.1022 6 11.5263 6.38376 11.5263 6.85714V8.57143C11.5263 9.04482 11.1022 9.42857 10.5789 9.42857H8.68421C8.16099 9.42857 7.73684 9.04482 7.73684 8.57143V6.85714Z" fill="currentColor"></path>
    <path d="M12.4737 6.85714C12.4737 6.38376 12.8978 6 13.4211 6H15.3158C15.839 6 16.2632 6.38376 16.2632 6.85714V8.57143C16.2632 9.04482 15.839 9.42857 15.3158 9.42857H13.4211C12.8978 9.42857 12.4737 9.04482 12.4737 8.57143V6.85714Z" fill="currentColor"></path>
    <path d="M17.2105 6.85714C17.2105 6.38376 17.6347 6 18.1579 6H20.0526C20.5758 6 21 6.38376 21 6.85714V8.57143C21 9.04482 20.5758 9.42857 20.0526 9.42857H18.1579C17.6347 9.42857 17.2105 9.04482 17.2105 8.57143V6.85714Z" fill="currentColor"></path>
    <path d="M3 15.4286C3 14.9552 3.42415 14.5714 3.94737 14.5714H5.84211C6.36532 14.5714 6.78947 14.9552 6.78947 15.4286V17.1429C6.78947 17.6162 6.36532 18 5.84211 18H3.94737C3.42415 18 3 17.6162 3 17.1429V15.4286Z" fill="currentColor"></path>
    <path d="M7.73684 15.4286C7.73684 14.9552 8.16099 14.5714 8.68421 14.5714H10.5789C11.1022 14.5714 11.5263 14.9552 11.5263 15.4286V17.1429C11.5263 17.6162 11.1022 18 10.5789 18H8.68421C8.16099 18 7.73684 17.6162 7.73684 17.1429V15.4286Z" fill="currentColor"></path>
    <path d="M12.4737 15.4286C12.4737 14.9552 12.8978 14.5714 13.4211 14.5714H15.3158C15.839 14.5714 16.2632 14.9552 16.2632 15.4286V17.1429C16.2632 17.6162 15.839 18 15.3158 18H13.4211C12.8978 18 12.4737 17.6162 12.4737 17.1429V15.4286Z" fill="currentColor"></path>
    <path d="M7.73684 11.1429C7.73684 10.6695 8.16099 10.2857 8.68421 10.2857H10.5789C11.1022 10.2857 11.5263 10.6695 11.5263 11.1429V12.8571C11.5263 13.3305 11.1022 13.7143 10.5789 13.7143H8.68421C8.16099 13.7143 7.73684 13.3305 7.73684 12.8571V11.1429Z" fill="currentColor"></path>
    <path d="M3 11.1429C3 10.6695 3.42415 10.2857 3.94737 10.2857H5.84211C6.36532 10.2857 6.78947 10.6695 6.78947 11.1429V12.8571C6.78947 13.3305 6.36532 13.7143 5.84211 13.7143H3.94737C3.42415 13.7143 3 13.3305 3 12.8571V11.1429Z" fill="currentColor"></path>
    <path d="M12.4737 11.1429C12.4737 10.6695 12.8978 10.2857 13.4211 10.2857H15.3158C15.839 10.2857 16.2632 10.6695 16.2632 11.1429V12.8571C16.2632 13.3305 15.839 13.7143 15.3158 13.7143H13.4211C12.8978 13.7143 12.4737 13.3305 12.4737 12.8571V11.1429Z" fill="currentColor"></path>
    <path d="M17.2105 11.1429C17.2105 10.6695 17.6347 10.2857 18.1579 10.2857H20.0526C20.5758 10.2857 21 10.6695 21 11.1429V12.8571C21 13.3305 20.5758 13.7143 20.0526 13.7143H18.1579C17.6347 13.7143 17.2105 13.3305 17.2105 12.8571V11.1429Z" fill="currentColor"></path>
  </symbol>
  <symbol fill="none" xmlns="http://www.w3.org/2000/svg" viewBox="0 0 24 24" id="ic_setting">
    <path d="M10.3246 4.31731C10.751 2.5609 13.249 2.5609 13.6754 4.31731C13.9508 5.45193 15.2507 5.99038 16.2478 5.38285C17.7913 4.44239 19.5576 6.2087 18.6172 7.75218C18.0096 8.74925 18.5481 10.0492 19.6827 10.3246C21.4391 10.751 21.4391 13.249 19.6827 13.6754C18.5481 13.9508 18.0096 15.2507 18.6172 16.2478C19.5576 17.7913 17.7913 19.5576 16.2478 18.6172C15.2507 18.0096 13.9508 18.5481 13.6754 19.6827C13.249 21.4391 10.751 21.4391 10.3246 19.6827C10.0492 18.5481 8.74926 18.0096 7.75219 18.6172C6.2087 19.5576 4.44239 17.7913 5.38285 16.2478C5.99038 15.2507 5.45193 13.9508 4.31731 13.6754C2.5609 13.249 2.5609 10.751 4.31731 10.3246C5.45193 10.0492 5.99037 8.74926 5.38285 7.75218C4.44239 6.2087 6.2087 4.44239 7.75219 5.38285C8.74926 5.99037 10.0492 5.45193 10.3246 4.31731Z" stroke="currentColor" stroke-width="1.6" stroke-linecap="round" stroke-linejoin="round"></path>
    <path d="M15 12C15 13.6569 13.6569 15 12 15C10.3431 15 9 13.6569 9 12C9 10.3431 10.3431 9 12 9C13.6569 9 15 10.3431 15 12Z" stroke="currentColor" stroke-width="1.6" stroke-linecap="round" stroke-linejoin="round"></path>
  </symbol>
  <symbol fill="none" xmlns="http://www.w3.org/2000/svg" viewBox="0 0 24 24" id="ic_users">
    <path d="M12 5.20371C12.6515 4.46556 13.6047 4 14.6667 4C16.6303 4 18.2222 5.59188 18.2222 7.55556C18.2222 9.51923 16.6303 11.1111 14.6667 11.1111C13.6047 11.1111 12.6515 10.6456 12 9.9074M14.6667 20H4V19.1111C4 16.1656 6.38781 13.7778 9.33333 13.7778C12.2789 13.7778 14.6667 16.1656 14.6667 19.1111V20ZM14.6667 20H20V19.1111C20 16.1656 17.6122 13.7778 14.6667 13.7778C13.6952 13.7778 12.7845 14.0375 12 14.4913M12.8889 7.55556C12.8889 9.51923 11.297 11.1111 9.33333 11.1111C7.36965 11.1111 5.77778 9.51923 5.77778 7.55556C5.77778 5.59188 7.36965 4 9.33333 4C11.297 4 12.8889 5.59188 12.8889 7.55556Z" stroke="currentColor" stroke-width="1.6" stroke-linecap="round" stroke-linejoin="round"></path>
  </symbol>
  <symbol fill="none" xmlns="http://www.w3.org/2000/svg" viewBox="0 0 24 25" id="ic_tg">
    <path fill-rule="evenodd" clip-rule="evenodd" d="M22 12.25C22 17.7728 17.5228 22.25 12 22.25C6.47715 22.25 2 17.7728 2 12.25C2 6.72715 6.47715 2.25 12 2.25C17.5228 2.25 22 6.72715 22 12.25ZM12.3583 9.63245C11.3857 10.037 9.44176 10.8743 6.52656 12.1445C6.05318 12.3327 5.8052 12.5169 5.78262 12.6969C5.74447 13.0013 6.12558 13.1211 6.64454 13.2843C6.71513 13.3065 6.78828 13.3295 6.86326 13.3539C7.37385 13.5198 8.06067 13.714 8.41772 13.7217C8.7416 13.7287 9.10309 13.5952 9.50218 13.3211C12.2259 11.4825 13.632 10.5532 13.7202 10.5332C13.7825 10.519 13.8688 10.5012 13.9273 10.5532C13.9858 10.6052 13.98 10.7036 13.9738 10.73C13.9361 10.891 12.4401 12.2818 11.6659 13.0015C11.4246 13.2259 11.2534 13.385 11.2184 13.4214C11.14 13.5028 11.0601 13.5798 10.9833 13.6539C10.509 14.1111 10.1532 14.454 11.003 15.014C11.4113 15.2831 11.7381 15.5056 12.0641 15.7276C12.4201 15.9701 12.7752 16.2119 13.2347 16.5131C13.3517 16.5898 13.4635 16.6695 13.5724 16.7471C13.9867 17.0425 14.3589 17.3079 14.8188 17.2655C15.086 17.241 15.362 16.9897 15.5022 16.2403C15.8335 14.4693 16.4847 10.6321 16.6352 9.05082C16.6483 8.91229 16.6318 8.73499 16.6184 8.65716C16.6051 8.57932 16.5773 8.46843 16.4761 8.38634C16.3563 8.28912 16.1713 8.26862 16.0886 8.27008C15.7125 8.2767 15.1354 8.47736 12.3583 9.63245Z" fill="currentColor"></path>
  </symbol>
  <symbol fill="none" xmlns="http://www.w3.org/2000/svg" viewBox="0 0 24 25" id="ic_whatsapp">
    <path d="M12.625 21C11.0104 21 9.49349 20.6094 8.07422 19.8281L2 22.25L4.42188 16.1758C3.64062 14.7565 3.25 13.2396 3.25 11.625C3.25 10.349 3.4974 9.13477 3.99219 7.98242C4.48698 6.83008 5.1543 5.83398 5.99414 4.99414C6.83398 4.1543 7.83008 3.48698 8.98242 2.99219C10.1348 2.4974 11.349 2.25 12.625 2.25C13.901 2.25 15.1152 2.4974 16.2676 2.99219C17.4199 3.48698 18.416 4.1543 19.2559 4.99414C20.0957 5.83398 20.763 6.83008 21.2578 7.98242C21.7526 9.13477 22 10.349 22 11.625C22 12.901 21.7526 14.1152 21.2578 15.2676C20.763 16.4199 20.0957 17.416 19.2559 18.2559C18.416 19.0957 17.4199 19.763 16.2676 20.2578C15.1152 20.7526 13.901 21 12.625 21ZM15.75 13.5H14.5L13.7969 14.125C13.2109 13.9688 12.4915 13.4642 11.6387 12.6113C10.7858 11.7585 10.2812 11.0391 10.125 10.4531L10.75 9.75V8.5C10.75 8.27865 10.6719 8.05729 10.5156 7.83594C10.3594 7.61458 10.1868 7.45508 9.99805 7.35742C9.80924 7.25977 9.67578 7.25 9.59766 7.32812L8.67969 8.24609C8.17188 8.75391 8.09701 9.54492 8.45508 10.6191C8.81315 11.6934 9.49674 12.735 10.5059 13.7441C11.515 14.7533 12.5566 15.4368 13.6309 15.7949C14.7051 16.153 15.4961 16.0781 16.0039 15.5703L16.9219 14.6523C17 14.5742 16.9902 14.4408 16.8926 14.252C16.7949 14.0632 16.6354 13.8906 16.4141 13.7344C16.1927 13.5781 15.9714 13.5 15.75 13.5Z" fill="currentColor"></path>
  </symbol>
  <symbol fill="none" xmlns="http://www.w3.org/2000/svg" viewBox="0 0 24 25" id="ic_vk">
    <path d="M17.5859 12.3156C18.5169 13.0156 19.652 14.0328 20.9912 15.3672C22.3304 16.7016 23 17.5292 23 17.85C23 18.2437 22.889 18.5755 22.667 18.8453C22.445 19.1151 22.0977 19.25 21.625 19.25H19.3477C18.918 19.25 18.5312 19.0677 18.1875 18.7031C17.3281 17.7698 16.4473 16.8729 15.5449 16.0125C14.6426 15.1521 13.9193 14.5396 13.375 14.175V18.55C13.375 18.7396 13.307 18.9036 13.1709 19.0422C13.0348 19.1807 12.8737 19.25 12.6875 19.25H9.9375C9.60807 19.25 9.13184 18.9948 8.50879 18.4844C7.88574 17.974 7.21615 17.2958 6.5 16.45C5.46875 15.2396 4.29427 13.475 2.97656 11.1562C1.65885 8.8375 1 7.33542 1 6.65C1 6.13958 1.111 5.77865 1.33301 5.56719C1.55501 5.35573 1.90234 5.25 2.375 5.25H4.65234C4.85286 5.25 5.06413 5.3375 5.28613 5.5125C5.50814 5.6875 5.67643 5.89167 5.79102 6.125C5.81966 6.19792 5.96289 6.50781 6.2207 7.05469C6.47852 7.60156 6.64323 7.94792 6.71484 8.09375L7.16602 9.0125L7.69238 10.0297L8.17578 10.85L8.73438 11.7031L9.25 12.3375V5.95C9.25 5.76042 9.31803 5.59635 9.4541 5.45781C9.59017 5.31927 9.7513 5.25 9.9375 5.25H12.6875C12.8737 5.25 13.0348 5.31927 13.1709 5.45781C13.307 5.59635 13.375 5.76042 13.375 5.95V10.9375C14.8359 9.93125 16.4401 8.21771 18.1875 5.79688C18.3021 5.65104 18.4704 5.52344 18.6924 5.41406C18.9144 5.30469 19.1328 5.25 19.3477 5.25H21.625C22.1263 5.25 22.4808 5.36667 22.6885 5.6C22.8962 5.83333 23 6.18333 23 6.65C23 7.29167 22.4163 8.1849 21.249 9.32969C20.0817 10.4745 18.8607 11.4698 17.5859 12.3156Z" fill="currentColor"></path>
  </symbol>
  <symbol fill="none" xmlns="http://www.w3.org/2000/svg" viewBox="0 0 24 24" id="ic_whatsapp2">
    <path d="M12.0377 3.29102C7.09761 3.29102 3.07723 7.16334 3.07548 11.9223C3.07432 13.4442 3.48774 14.9295 4.27161 16.2377L3 20.7104L7.75142 19.5102C9.07309 20.2015 10.5427 20.5622 12.0343 20.5611H12.0377C16.9779 20.5611 20.9983 16.6882 21 11.9293C21.0012 9.62411 20.0698 7.45424 18.3772 5.82321C16.6852 4.1916 14.4352 3.2916 12.0377 3.29102ZM12.0377 19.1031H12.0348C10.6982 19.1031 9.3871 18.7571 8.24323 18.1033L7.97032 17.9477L5.15187 18.6595L5.90439 16.0118L5.72729 15.7406C4.98343 14.6061 4.58745 13.2789 4.58806 11.9223C4.58981 7.96637 7.932 4.74902 12.0406 4.74902C14.0299 4.7496 15.9002 5.49689 17.3071 6.85269C18.714 8.2085 19.488 10.0114 19.4868 11.9287C19.4851 15.8846 16.1441 19.1031 12.0377 19.1031ZM16.1237 13.7293C15.8996 13.6219 14.7987 13.0999 14.5932 13.0273C14.3882 12.9559 14.239 12.9187 14.0897 13.1347C13.9411 13.3507 13.5114 13.8367 13.3814 13.9801C13.2501 14.1241 13.1195 14.1415 12.8954 14.0341C12.6712 13.9261 11.9495 13.6985 11.0948 12.9634C10.4288 12.392 9.97935 11.686 9.84871 11.4694C9.71806 11.254 9.83477 11.1373 9.94684 11.0299C10.0473 10.934 10.171 10.7784 10.2825 10.6524C10.3939 10.5264 10.4311 10.4364 10.5066 10.2924C10.5809 10.149 10.5437 10.0224 10.4874 9.91502C10.4311 9.80644 9.984 8.74502 9.79645 8.3136C9.61529 7.89321 9.43064 7.94953 9.29303 7.94256C9.16239 7.93676 9.01374 7.93502 8.86335 7.93502C8.71529 7.93502 8.472 7.98902 8.26645 8.20502C8.06148 8.42102 7.48258 8.94244 7.48258 10.0039C7.48258 11.0659 8.28503 12.0913 8.3971 12.2353C8.50916 12.3787 9.97645 14.5579 12.223 15.4927C12.7572 15.7139 13.1741 15.8469 13.4998 15.9468C14.0363 16.1111 14.5246 16.0873 14.9102 16.0321C15.3399 15.97 16.2352 15.5107 16.421 15.0073C16.608 14.5039 16.608 14.0719 16.5523 13.9819C16.4977 13.8919 16.3479 13.8379 16.1237 13.7293Z" fill="currentColor"></path>
  </symbol>
  <symbol fill="none" xmlns="http://www.w3.org/2000/svg" viewBox="0 0 24 25" id="ic_youtube">
    <path fill-rule="evenodd" clip-rule="evenodd" d="M19.792 5.66483C20.6521 5.89589 21.3325 6.57626 21.5635 7.43633C21.9872 9.00244 22 12.2502 22 12.2502C22 12.2502 22 15.5108 21.5764 17.0641C21.3453 17.9241 20.665 18.6045 19.8049 18.8356C18.2516 19.2592 12 19.2592 12 19.2592C12 19.2592 5.74839 19.2592 4.19512 18.8356C3.33504 18.6045 2.65469 17.9241 2.42362 17.0641C2 15.498 2 12.2502 2 12.2502C2 12.2502 2 9.00244 2.41078 7.44917C2.64185 6.58909 3.32221 5.90873 4.18229 5.67767C5.73556 5.25404 11.9872 5.24121 11.9872 5.24121C11.9872 5.24121 18.2388 5.24121 19.792 5.66483ZM15.1836 12.2502L9.99743 15.254V9.24635L15.1836 12.2502Z" fill="currentColor"></path>
  </symbol>
</svg>